<?xml version="1.0" encoding="UTF-8"?>
<!DOCTYPE svg PUBLIC "-//W3C//DTD SVG 1.1//EN" "http://www.w3.org/Graphics/SVG/1.1/DTD/svg11.dtd">
<!-- Creator: CorelDRAW 2019 (64 Bit) -->
<svg xmlns="http://www.w3.org/2000/svg" xml:space="preserve" width="90mm" height="50mm" version="1.1" style="shape-rendering:geometricPrecision; text-rendering:geometricPrecision; image-rendering:optimizeQuality; fill-rule:evenodd; clip-rule:evenodd"
viewBox="0 0 9000 5000"
 xmlns:xlink="http://www.w3.org/1999/xlink"
 xmlns:xodm="http://www.corel.com/coreldraw/odm/2003">
 <defs>
  <style type="text/css">
   <![CDATA[
    .fil19 {fill:#2B2941;fill-rule:nonzero}
    .fil3 {fill:#334368;fill-rule:nonzero}
    .fil82 {fill:#351E19;fill-rule:nonzero}
    .fil59 {fill:#35201D;fill-rule:nonzero}
    .fil89 {fill:#382927;fill-rule:nonzero}
    .fil11 {fill:#3A1C25;fill-rule:nonzero}
    .fil27 {fill:#3F323F;fill-rule:nonzero}
    .fil0 {fill:#45BDDD;fill-rule:nonzero}
    .fil71 {fill:#472622;fill-rule:nonzero}
    .fil18 {fill:#477D9B;fill-rule:nonzero}
    .fil58 {fill:#4F322D;fill-rule:nonzero}
    .fil30 {fill:#4F3D3D;fill-rule:nonzero}
    .fil78 {fill:#513229;fill-rule:nonzero}
    .fil79 {fill:#513830;fill-rule:nonzero}
    .fil53 {fill:#513935;fill-rule:nonzero}
    .fil70 {fill:#542F29;fill-rule:nonzero}
    .fil2 {fill:#54CDF7;fill-rule:nonzero}
    .fil26 {fill:#554256;fill-rule:nonzero}
    .fil15 {fill:#562C36;fill-rule:nonzero}
    .fil90 {fill:#664444;fill-rule:nonzero}
    .fil101 {fill:#666426;fill-rule:nonzero}
    .fil81 {fill:#684436;fill-rule:nonzero}
    .fil57 {fill:#6B4A43;fill-rule:nonzero}
    .fil45 {fill:#757A31;fill-rule:nonzero}
    .fil36 {fill:#773E2A;fill-rule:nonzero}
    .fil39 {fill:#7E842A;fill-rule:nonzero}
    .fil88 {fill:#7F5752;fill-rule:nonzero}
    .fil94 {fill:#8C802D;fill-rule:nonzero}
    .fil35 {fill:#8E573F;fill-rule:nonzero}
    .fil32 {fill:#91546B;fill-rule:nonzero}
    .fil68 {fill:#993730;fill-rule:nonzero}
    .fil92 {fill:#9E9E2E;fill-rule:nonzero}
    .fil34 {fill:#A09A2B;fill-rule:nonzero}
    .fil84 {fill:#A56B55;fill-rule:nonzero}
    .fil38 {fill:#ACB22B;fill-rule:nonzero}
    .fil31 {fill:#AF1B33;fill-rule:nonzero}
    .fil96 {fill:#AFAC31;fill-rule:nonzero}
    .fil7 {fill:#B21D40;fill-rule:nonzero}
    .fil67 {fill:#B24A3F;fill-rule:nonzero}
    .fil22 {fill:#B31B29;fill-rule:nonzero}
    .fil42 {fill:#B5BF34;fill-rule:nonzero}
    .fil62 {fill:#B67C6E;fill-rule:nonzero}
    .fil98 {fill:#B7B332;fill-rule:nonzero}
    .fil85 {fill:#BA8867;fill-rule:nonzero}
    .fil20 {fill:#BB872A;fill-rule:nonzero}
    .fil69 {fill:#BF5B4B;fill-rule:nonzero}
    .fil61 {fill:#BF6767;fill-rule:nonzero}
    .fil6 {fill:#C42C49;fill-rule:nonzero}
    .fil37 {fill:#C5D841;fill-rule:nonzero}
    .fil50 {fill:#C6422C;fill-rule:nonzero}
    .fil87 {fill:#C69A71;fill-rule:nonzero}
    .fil97 {fill:#C6C63E;fill-rule:nonzero}
    .fil33 {fill:#C987A2;fill-rule:nonzero}
    .fil21 {fill:#CF2A36;fill-rule:nonzero}
    .fil80 {fill:#D1756B;fill-rule:nonzero}
    .fil14 {fill:#D32D41;fill-rule:nonzero}
    .fil23 {fill:#D33241;fill-rule:nonzero}
    .fil25 {fill:#D3354F;fill-rule:nonzero}
    .fil44 {fill:#D4D835;fill-rule:nonzero}
    .fil83 {fill:#D6AE85;fill-rule:nonzero}
    .fil29 {fill:#D8324A;fill-rule:nonzero}
    .fil73 {fill:#D86132;fill-rule:nonzero}
    .fil76 {fill:#D87139;fill-rule:nonzero}
    .fil75 {fill:#D88256;fill-rule:nonzero}
    .fil74 {fill:#D88E7B;fill-rule:nonzero}
    .fil17 {fill:#D89BA0;fill-rule:nonzero}
    .fil93 {fill:#D8C93D;fill-rule:nonzero}
    .fil40 {fill:#D9E545;fill-rule:nonzero}
    .fil8 {fill:#DB355D;fill-rule:nonzero}
    .fil95 {fill:#DBC645;fill-rule:nonzero}
    .fil4 {fill:#DDDD43;fill-rule:nonzero}
    .fil48 {fill:#DEE045;fill-rule:nonzero}
    .fil41 {fill:#E1ED48;fill-rule:nonzero}
    .fil49 {fill:#E27A34;fill-rule:nonzero}
    .fil12 {fill:#E53851;fill-rule:nonzero}
    .fil24 {fill:#E55838;fill-rule:nonzero}
    .fil99 {fill:#E5E14A;fill-rule:nonzero}
    .fil46 {fill:#E8EF68;fill-rule:nonzero}
    .fil91 {fill:#EDDB58;fill-rule:nonzero}
    .fil47 {fill:#F0F56E;fill-rule:nonzero}
    .fil1 {fill:#F44556;fill-rule:nonzero}
    .fil60 {fill:#F45E4E;fill-rule:nonzero}
    .fil100 {fill:#F4EB53;fill-rule:nonzero}
    .fil43 {fill:#F5F964;fill-rule:nonzero}
    .fil10 {fill:#F78B41;fill-rule:nonzero}
    .fil86 {fill:#F7D5B7;fill-rule:nonzero}
    .fil16 {fill:#F95368;fill-rule:nonzero}
    .fil13 {fill:#FF4D5E;fill-rule:nonzero}
    .fil102 {fill:#FF508A;fill-rule:nonzero}
    .fil64 {fill:#FF8040;fill-rule:nonzero}
    .fil63 {fill:#FF9F50;fill-rule:nonzero}
    .fil52 {fill:#FFB852;fill-rule:nonzero}
    .fil9 {fill:#FFB95C;fill-rule:nonzero}
    .fil56 {fill:#FFCF7B;fill-rule:nonzero}
    .fil51 {fill:#FFD16C;fill-rule:nonzero}
    .fil66 {fill:#FFD58A;fill-rule:nonzero}
    .fil72 {fill:#FFD685;fill-rule:nonzero}
    .fil77 {fill:#FFDFAB;fill-rule:nonzero}
    .fil55 {fill:#FFE18D;fill-rule:nonzero}
    .fil28 {fill:#FFE7AB;fill-rule:nonzero}
    .fil65 {fill:#FFEAC5;fill-rule:nonzero}
    .fil54 {fill:#FFF2D2;fill-rule:nonzero}
    .fil5 {fill:#FFF648;fill-rule:nonzero}
   ]]>
  </style>
 </defs>
 <g id="Camada_x0020_1">
  <metadata id="CorelCorpID_0Corel-Layer"/>
  <g id="_647521589984">
   <path class="fil0" d="M3422.69 1870.38l55.21 276.13 5.83 303.53c-150.85,-311.6 -61.04,-579.66 -61.04,-579.66z"/>
   <path class="fil0" d="M4300.97 1893.37l-126.03 251.44 -85.98 290.99c227.06,-260.14 212.01,-542.43 212.01,-542.43z"/>
   <path class="fil1" d="M3760.38 454.08c-53.79,-19.76 54.07,178.61 54.07,178.61l186.43 230.3c-40.17,-113.02 -186.68,-389.16 -240.5,-408.91z"/>
   <path class="fil2" d="M3972.76 1232.33l-209.88 1513.28c0,0 399.78,-361.99 513.07,-697.3 113.26,-335.29 -163.26,-703.22 -303.19,-815.98z"/>
   <path class="fil3" d="M3971.29 1252.91l-40.21 289.95c2.29,8.44 4.65,16.92 7.24,25.41 74.19,243.44 245.01,399.45 362.65,325.09 15.8,-318.82 -213.98,-547.2 -329.68,-640.45z"/>
   <path class="fil4" d="M3972.76 1232.33l-40.2 289.94c2.26,8.44 4.64,16.92 7.24,25.41 74.2,243.45 245.02,399.46 362.63,325.11 15.81,-318.84 -213.97,-547.22 -329.67,-640.46z"/>
   <path class="fil5" d="M4120 1377.13c101.22,218.71 122.08,447.3 166.89,436.04 6.27,-1.56 11.07,-8.21 14.39,-19.08 -13.09,-172.02 -95.31,-313.74 -181.28,-416.96z"/>
   <path class="fil0" d="M3879.81 1902.56l-116.93 843.05c0,0 199.77,-180.91 356.89,-405.4 -98.61,-59.4 -189.55,-225.09 -239.96,-437.65z"/>
   <path class="fil3" d="M4115.3 1653.05c-52.27,-22.32 -140.16,18.94 -214.21,83.95l-155.85 990.96c176.73,-155.21 263.19,-270.68 348.13,-446.48 189.61,-392.42 140.73,-577.66 21.93,-628.43z"/>
   <path class="fil6" d="M3806.19 3457.74c-179.9,-83.08 -279.85,-451.04 -256.52,-721.04 23.32,-270.01 79.94,-459.91 123.26,-590.47 0,0 29.97,370.9 29.97,551.9 0,180.98 -56.62,646.86 103.29,759.61z"/>
   <path class="fil7" d="M3689.28 3186.18c6.45,19.28 12.36,38.26 17.8,56.86 -28.63,-183.94 -4.18,-425.94 -4.18,-544.91 0,-181 -29.97,-551.9 -29.97,-551.9 -43.32,130.56 -99.94,320.46 -123.26,590.47 -4.63,53.53 -4.34,110.93 0.4,169.14 43.42,49.13 96.76,153.78 139.21,280.34z"/>
   <path class="fil8" d="M3806.19 3457.74c-76.73,-54.1 -103.59,-189.46 -110.79,-335.7 -20.8,39.78 -35.84,100.63 -41,171.38 40.64,77 91.72,136.57 151.79,164.32z"/>
   <path class="fil6" d="M3580.63 3311.42c-153.49,-132.46 -164.16,-524.81 -79.15,-785.79 84.99,-260.98 183.42,-433.27 255.27,-550.52 0,0 -57.19,375.77 -99.17,555.07 -41.95,179.29 -204.36,624.95 -76.95,781.24z"/>
   <path class="fil7" d="M3610.76 2703.01c18.82,-68.25 36.47,-128.64 46.82,-172.83 41.98,-179.3 47.76,-541.9 47.76,-541.9 -264.75,431.96 -267.84,719.58 -255.26,954.09 42.7,-137.18 105.45,-233.17 160.68,-239.36z"/>
   <path class="fil8" d="M3476.76 3121.54c21.49,80.86 55.62,148.24 103.87,189.88 -63.31,-77.64 -55.03,-226.75 -25.58,-379.11 -38.28,16.09 -71.16,93.43 -78.29,189.23z"/>
   <path class="fil6" d="M3749.57 3300.47c-83.3,-109.79 -231.78,-707.6 -61.85,-1235.77l371.67 140.88c0,0 -249.87,385.73 -296.51,578.6 -44.14,182.54 -13.31,516.29 -13.31,516.29z"/>
   <path class="fil7" d="M3704.24 2457.86c37.23,0 69.88,94.5 88.46,236.81 81.14,-202.66 266.69,-489.09 266.69,-489.09l-371.67 -140.88c-70.25,218.33 -86.05,448.56 -74.56,651.31 18,-154.11 52.03,-258.15 91.08,-258.15z"/>
   <path class="fil8" d="M3666.22 3080.27c26.6,108.11 57.98,186.8 83.35,220.2 0,0 -25.4,-274.92 2.93,-462.2 -37.59,34.26 -70.56,126.01 -86.28,242z"/>
   <polygon class="fil9" points="3986.1,4269.73 4059.39,4304.34 4039.39,2572.5 4009.42,2578.29 "/>
   <path class="fil10" d="M4045.06 2863.55l-5.67 -291.05 -29.97 5.79 -8.31 352.46c14.26,-24.41 28.95,-46.91 43.95,-67.2z"/>
   <path class="fil2" d="M3646.28 2790.1c0,0 -258.56,-585.81 -239.88,-946.53 9.98,-192.86 101.17,-490.84 363.32,-580.64 43.31,-14.84 36.05,278.96 -26.82,432.28 -139.93,341.23 -96.62,1094.89 -96.62,1094.89z"/>
   <path class="fil0" d="M3634.8 1745.75c-136.7,77.17 21.77,807 -172.78,510.3 71.19,277.86 184.26,534.05 184.26,534.05 0,0 28.21,-826.08 -11.48,-1044.35z"/>
   <path class="fil3" d="M3769.72 1290.86c-262.15,89.8 -353.34,387.78 -363.32,580.63 -0.99,19.18 -1.17,39.01 -0.67,59.32 108.63,-5.04 236.09,-83.54 338.88,-212.07 61.24,-154.45 68.01,-442.58 25.11,-427.88z"/>
   <path class="fil4" d="M3769.72 1262.93c-262.15,89.8 -353.34,387.78 -363.32,580.64 -0.99,19.17 -1.17,39 -0.67,59.31 108.63,-5.04 236.09,-83.54 338.88,-212.07 61.24,-154.45 68.01,-442.58 25.11,-427.88z"/>
   <polygon class="fil3" points="3442.24,1916.25 3464.29,1795.72 3470.3,1895.76 "/>
   <path class="fil11" d="M3696.21 2342.88c0,0 21.27,101.83 43.33,101.06 38.39,-1.31 15.08,-97.15 15.08,-97.15l-58.41 -3.91z"/>
   <path class="fil12" d="M3656.99 2108.24c-14.92,151.36 -1.16,276.69 79.81,291.4 34.56,6.27 86.06,-186.67 86.06,-186.67l-165.87 -104.73z"/>
   <path class="fil11" d="M3853.05 2346.51c0,0 -47.39,92.6 -29.76,105.83 12.56,9.43 34.94,4.26 39.73,-14.29 6.56,-25.37 41.3,-54.6 41.3,-54.6l-51.27 -36.94z"/>
   <path class="fil12" d="M4069.08 2174.99c-39.7,117 -113.2,237.71 -211.13,225.97 -41.43,-4.97 24.57,-191.94 24.57,-191.94l186.56 -34.03z"/>
   <path class="fil1" d="M4066.91 2239.6c48.07,-83.58 185.95,-297.17 142.54,-513.68 -49.95,-249.13 -177.82,-330.7 -191.05,-535.73l-335.1 -26.46c105.82,147.71 -31.55,321.31 -65.38,512.01 -24.62,138.68 -32.37,311.56 0.77,532.15 5.28,38.15 34.55,108.09 51.38,102.25 10.11,-3.49 10.08,-61.59 13.48,-93.75 0,0 -1.58,76.54 30.61,89.35 37.66,14.99 51.04,-46.2 51.04,-46.2 0,0 -18.74,48.05 10.7,55.02 29.52,6.96 67.84,-51.84 67.84,-51.84 0,0 -35.95,49.41 0.51,54.03 36.59,4.66 95.05,-75.11 95.05,-75.11 0,0 -35.58,54.85 -15.69,64.1 51.07,37.42 121.85,-28.83 143.3,-66.14z"/>
   <path class="fil13" d="M4209.45 1725.92c-30.85,-153.85 -91.38,-243.8 -136.31,-338.39 -81.4,-48.17 -263.26,47.44 -331.84,153.29 -177.09,273.28 178.95,670.52 412.27,537.01 44.51,-99.28 81.31,-225.08 55.88,-351.91z"/>
   <path class="fil14" d="M3621.57 1934.25c0,-353.7 147.57,-640.44 329.58,-640.44 32.65,0 64.16,9.35 93.92,26.53 -13.7,-38.97 -23.5,-80.99 -26.67,-130.15l-335.1 -26.46c105.82,147.71 -31.55,321.31 -65.38,512.01 -24.62,138.68 -32.37,311.56 0.77,532.15 5.28,38.15 34.55,108.09 51.38,102.25 3.43,-1.17 5.68,-8.7 7.31,-19.29 -35.23,-101.93 -55.81,-224.59 -55.81,-356.6z"/>
   <path class="fil14" d="M3597.17 1884.73c64.1,-279.94 277.65,-470.58 481.05,-427.13 12.14,2.59 23.96,6.03 35.47,10.13 -45.15,-87.69 -87.92,-163.54 -95.29,-277.54l-335.1 -26.46c105.82,147.71 -31.55,321.31 -65.38,512.01 -11.06,62.33 -18.67,131.64 -20.75,208.99z"/>
   <path class="fil15" d="M3850.85 2431.39l-27.56 20.95c0,0 49.6,37.48 73.87,65.04l69.44 6.58c0,0 -69.44,-59.49 -115.75,-92.57z"/>
   <path class="fil11" d="M3883.06 2455.6c-11.18,-8.7 -22.96,-28.08 -32.94,-35.2l-26.83 31.94c0,0 34.45,26.06 59.98,50.7 -4.13,-17.07 -4.03,-33.58 -0.21,-47.44z"/>
   <path class="fil9" d="M3459.71 2539.57c89.73,-100.53 486.4,0 606.34,-11.87 119.93,-11.85 346.5,-14.83 349.82,29.68 3.33,44.51 -186.56,97.91 -386.47,56.37 0,0 -672.98,41.54 -569.69,-74.18z"/>
   <path class="fil10" d="M4223.6 2587.87c-67.82,2.87 -128.76,-2.56 -169.28,-13.37 -47.71,13.61 -127.89,21.75 -215.87,20.06 -135.13,-2.63 -237.45,-27.44 -228.56,-55.46 5.64,-17.7 54.39,-32.42 123.6,-40.21 -118.84,-9.45 -231.09,-7.18 -273.78,40.68 -103.29,115.72 570.46,82.16 570.46,82.16 199.9,41.55 389.03,-19.84 385.7,-64.35 -0.19,-2.35 -1.07,-4.53 -2.44,-6.64 -36.39,18.91 -107.53,33.66 -189.83,37.13z"/>
   <path class="fil10" d="M3718.68 2617.93c-39.84,-36.45 7.36,-98.72 39.85,-109.69 0,0 6.93,-38.08 -52.95,-3.97 -59.88,34.08 -57.58,79.34 -27.4,101.68 16.13,13.98 40.5,11.98 40.5,11.98z"/>
   <path class="fil10" d="M3890.91 2515.67c44.65,29.63 9.01,75.36 -20.71,82.41 0,0 -0.5,28.9 52.02,5.3 52.54,-23.62 42.89,-58.4 9.95,-76.82 -17.94,-11.38 -41.26,-10.89 -41.26,-10.89z"/>
   <path class="fil10" d="M3764.59 2493.03c56.05,26.28 45.66,91.29 21.6,106.97 0,0 13.85,35.93 50.85,-5.62 37.01,-41.53 10.83,-82.39 -28.81,-97.5 -39.64,-15.09 -43.64,-3.85 -43.64,-3.85z"/>
   <path class="fil10" d="M3913.69 2522.55c61.89,0.75 79.3,64.24 63.88,88.48 0,0 27.46,26.98 43.98,-26.13 16.52,-53.14 -24.18,-79.52 -66.52,-76.88 -42.35,2.62 -41.34,14.53 -41.34,14.53z"/>
   <path class="fil16" d="M3976.1 858.46c-229.64,-131.73 -336.49,65.28 -356.47,133.52 -20.02,68.25 25.51,171.08 63.98,210.88 73.31,75.85 250.8,105.05 332.58,7.16 18.71,-22.36 156.46,-238.8 -40.09,-351.56z"/>
   <path class="fil1" d="M3519.68 389.63c-46.65,-2.95 89.95,151.33 116.61,172.11 0,0 -249.89,-136.49 -286.53,-115.72 -36.66,20.77 83.29,198.8 319.84,305.61 0,0 -209.89,-68.23 -226.55,-35.59 -16.66,32.64 63.3,80.1 63.3,80.1 0,0 -126.6,0 -119.95,41.55 6.66,41.55 197.61,51.6 234.26,241.51l422.08 -161.39c-93.29,-148.37 -400.51,-520.37 -523.06,-528.18z"/>
   <path class="fil17" d="M3406.35 1844.53c0.01,-0.09 0.01,-0.18 0.01,-0.27 0,0.11 0,0.16 -0.01,0.27zm0.05 -0.96c9.35,-180.79 90.07,-453.96 316.11,-561.42 -0.47,-18.25 -2.91,-36.19 -7.85,-53.82 0.02,0.02 0.03,0.03 0.05,0.04 4.96,17.61 7.4,35.52 7.86,53.75 -226.07,107.45 -306.81,380.64 -316.17,561.45z"/>
   <path class="fil18" d="M3405.58 1895.55c-0.07,-4 -0.11,-7.99 -0.12,-11.95 0.02,3.94 0.06,7.89 0.12,11.87 0,0.02 0,0.05 0,0.08zm0.73 -50.19c0.02,-0.27 0.02,-0.56 0.04,-0.83 0.01,-0.11 0.01,-0.16 0.01,-0.27 0.01,-0.23 0.03,-0.46 0.04,-0.69 -0.03,0.59 -0.06,1.19 -0.09,1.79z"/>
   <path class="fil19" d="M3406.76 1929.16c-0.6,-11.35 -0.99,-22.55 -1.18,-33.61 0,-0.03 0,-0.06 0,-0.08 0.05,2.46 0.09,4.93 0.15,7.41 4.82,-0.23 9.67,-0.6 14.56,-1.1 -4.66,9.01 -9.17,18.13 -13.53,27.38z"/>
   <path class="fil20" d="M3405.73 1902.88c-0.06,-2.48 -0.1,-4.95 -0.15,-7.41 -0.06,-3.98 -0.1,-7.93 -0.12,-11.87 0,-3.35 0.01,-6.69 0.05,-10.01 0,-0.7 0.03,-1.4 0.03,-2.11 0.13,-8.81 0.36,-17.53 0.77,-26.12 0.03,-0.6 0.06,-1.2 0.09,-1.79l0 0c9.36,-180.81 90.1,-454 316.17,-561.45 0.06,2.17 0.08,4.34 0.08,6.52 -0.05,106.58 -65.71,223.48 -96.43,348.12 -58.2,54.35 -113.59,116.53 -160.24,187.24l-1.69 -28.28 -7.89 43.13c-12.8,20.28 -24.9,41.27 -36.11,62.93 -4.89,0.5 -9.74,0.87 -14.56,1.1z"/>
   <path class="fil19" d="M3456.4 1838.85l7.89 -43.13 1.69 28.28c-3.23,4.91 -6.42,9.85 -9.58,14.85z"/>
   <path class="fil17" d="M4034.43 1286.19c-0.02,-0.02 -0.04,-0.04 -0.07,-0.07 -5.92,-21.58 -10.54,-44.32 -13.46,-68.81 -0.02,-0.14 -0.04,-0.28 -0.06,-0.41 0,-0.02 0,-0.04 0,-0.05 -0.45,-3.73 -0.84,-7.51 -1.21,-11.32 0,-0.01 0.01,-0.01 0.01,-0.02 0.14,1.44 0.29,2.86 0.43,4.28 0.23,2.2 0.53,4.34 0.77,6.52l0.05 0.27c0.47,4.01 0.97,8.03 1.53,11.93 0.37,2.71 0.82,5.37 1.23,8.02l0.04 0.24c0.53,3.25 1.08,6.46 1.65,9.64 0.54,2.93 1.11,5.84 1.7,8.72l0.07 0.4c0.53,2.64 1.1,5.28 1.68,7.88 0.68,3.08 1.38,6.15 2.12,9.18l0.2 0.84c0.46,1.94 0.95,3.85 1.46,5.77 0.6,2.36 1.22,4.66 1.86,6.99z"/>
   <path class="fil20" d="M4053.41 1342.7c-2.94,-7.38 -5.74,-14.82 -8.41,-22.4 0.03,0.01 0.05,0.03 0.07,0.04l0 0c-3.91,-11.13 -7.5,-22.5 -10.71,-34.22 0.03,0.03 0.05,0.05 0.07,0.07 0,0.01 0.01,0.02 0.01,0.03 1.19,1.1 14.13,42.76 18.97,56.48z"/>
   <path class="fil21" d="M4053.44 1342.77c-2.95,-7.39 -5.77,-14.87 -8.44,-22.47l0 0c2.67,7.58 5.47,15.02 8.41,22.4 0.01,0.02 0.02,0.05 0.03,0.07z"/>
   <path class="fil22" d="M4045.07 1320.34c-0.02,-0.01 -0.04,-0.03 -0.07,-0.04l0 0c-11.09,-31.59 -19.59,-65.21 -24.1,-102.99 2.92,24.49 7.54,47.23 13.46,68.81 3.21,11.72 6.8,23.09 10.71,34.22zm-24.23 -103.44c0,-0.02 0,-0.04 0,-0.05 0,0.01 0,0.03 0,0.05z"/>
   <path class="fil22" d="M3626.22 1636.76c30.72,-124.64 96.38,-241.54 96.43,-348.12 0,-2.18 -0.02,-4.35 -0.08,-6.52l0 0c-0.46,-18.23 -2.9,-36.14 -7.86,-53.75 41.09,27.16 96.89,43.92 151.57,43.92 57.21,0.01 113.19,-18.32 149.91,-62.27 0.89,-1.06 2.06,-2.57 3.44,-4.49 0.37,3.81 0.76,7.59 1.21,11.32 0,0.01 0,0.03 0,0.05 0.02,0.13 0.04,0.27 0.06,0.41 4.51,37.78 13.01,71.4 24.1,102.99 2.67,7.6 5.49,15.08 8.44,22.47 0.87,2.48 1.48,4.03 1.7,4.23 -72.81,42.93 -262.34,134.23 -428.92,289.76z"/>
   <path class="fil23" d="M3866.28 1272.29c-54.68,0 -110.48,-16.76 -151.57,-43.92 -0.02,-0.01 -0.03,-0.02 -0.05,-0.04 -6.2,-22.04 -16.31,-43.58 -31.36,-64.6l335.1 26.46c0.34,5.19 0.77,10.28 1.24,15.32 0,0.01 -0.01,0.01 -0.01,0.02 -1.38,1.92 -2.55,3.43 -3.44,4.49 -36.72,43.95 -92.7,62.28 -149.91,62.27z"/>
   <path class="fil1" d="M3597.32 996.18c28.65,57.32 -8.54,234.18 4.41,255.74 26.45,44.09 74.95,0 74.95,0 0,0 -72.76,92.59 -52.92,101.41 19.86,8.82 81.58,-26.45 81.58,-26.45 0,0 -19.83,39.68 -2.19,48.49 39.93,19.97 127.86,-55.11 127.86,-55.11 0,0 -24.25,37.48 17.64,39.69 41.88,2.2 167.54,-130.09 207.24,-224.89l-458.57 -138.88z"/>
   <path class="fil1" d="M3630.01 1155.08c-62.52,53.6 -155.52,21.45 -112.04,-53.69 34.91,-60.26 106.32,-130.81 106.32,-130.81l5.72 184.5z"/>
   <path class="fil1" d="M3925.3 1244.84c5.29,84.21 94.86,133.09 118.87,48.68 19.24,-67.7 22.74,-215.77 22.74,-215.77l-141.61 167.09z"/>
   <path class="fil14" d="M4055.14 1163.74c0,0 -101.41,111.69 -195.47,111.69 -94.06,0 33.8,-221.93 33.8,-221.93l161.67 110.24z"/>
   <path class="fil1" d="M3570.38 942.23c-141.39,-28.3 -145.79,19.42 -50.8,73.35 55.44,31.49 111.51,56.21 111.51,56.21l-60.71 -129.56z"/>
   <path class="fil15" d="M3759.68 2412.61l-33.39 14.39c0,0 16.96,42.62 15.34,72.62l54.08 4.85c0,0 -16.28,-70.36 -36.03,-91.86z"/>
   <path class="fil11" d="M3772.95 2443.91c1.4,0 2.79,0.14 4.15,0.37 -5.18,-12.97 -11.07,-31.36 -17.37,-38.22l-37.22 20.62c0,0 13.26,24.17 17.36,48.75 5.53,-18.54 18.26,-31.52 33.08,-31.52z"/>
   <path class="fil15" d="M3897.83 2506.07c48.76,41.63 17.11,105.32 -12.57,114.98 0,0 2.5,40.39 53.78,7.66 51.26,-32.7 36.65,-97.67 1.06,-123.51 -35.65,-25.88 -42.27,0.87 -42.27,0.87z"/>
   <path class="fil15" d="M3784.85 2501.66c58.89,25.37 47.43,95.59 21.95,113.61 0,0 14.32,37.82 53.64,-8.58 39.31,-46.39 6.19,-104.14 -35.49,-118.34 -41.67,-14.2 -40.1,13.31 -40.1,13.31z"/>
   <path class="fil15" d="M3928.16 2521.47c66.59,-3.58 93.64,63.83 80.25,91.11 0,0 33.06,27.26 43.8,-31.34 10.75,-58.63 -49.84,-95.22 -94.98,-89.36 -45.13,5.86 -29.07,29.59 -29.07,29.59z"/>
   <path class="fil15" d="M3759.83 2501.13c-66.69,12.32 -76.46,84.35 -56.37,107.75 0,0 -25.79,34.36 -51.15,-20.16 -25.36,-54.51 25.27,-104.5 71.34,-109.5 46.04,-5.03 36.18,21.91 36.18,21.91z"/>
   <path class="fil15" d="M3791.33 2498.65l-37.48 -1.1c-4.43,6.88 -8.07,39.84 -13.22,68.35 -6.39,35.34 -12.43,67.13 5.87,72 20.29,5.41 37.24,-23.09 44.83,-61.73 4.77,-24.34 7.24,-54.07 0,-77.52z"/>
   <path class="fil24" d="M3554.59 2540.36c-0.2,-18.52 -23.11,-28.43 -51.17,-22.18 -28.04,6.25 -50.59,26.31 -50.37,44.81 0.23,18.49 23.12,28.44 51.17,22.16 28.04,-6.25 50.58,-26.29 50.37,-44.79z"/>
   <path class="fil25" d="M3759.73 453.9c-49.98,-16.6 23.43,112.41 44.46,160.56 4.74,-5.25 3.47,-3.59 8.44,-8.51 -10.92,-26.46 -72,-133.39 -52.9,-152.05z"/>
   <path class="fil25" d="M3361.13 443.97c-4.76,-0.05 -8.7,0.53 -11.37,2.05 -36.5,20.69 82.32,197.28 316.88,304.23 1.69,-8.54 1.51,-8.62 3.65,-16.94 -135.74,-89.98 -237.88,-199.55 -309.16,-289.34z"/>
   <path class="fil14" d="M3670.64 887.01c11,-32.27 -10.38,-104.63 -4.08,-136.35 -25.47,-8.1 -208.02,-64.97 -223.51,-34.62 -16.66,32.64 63.3,80.1 63.3,80.1 0,0 -126.6,0 -119.95,41.55 4.34,27.03 86.7,40.78 153.76,99.36 -111.17,-15.66 -108.23,28.76 -20.58,78.53 14.67,8.33 29.35,16.17 43.06,23.22 -16.29,19.9 -32.63,41.82 -44.67,62.59 -37.43,64.67 26.25,97.44 84.58,71.16 -3.3,39.14 -5.85,70.99 -0.82,79.37 26.45,44.09 74.95,0 74.95,0 0,0 -72.76,92.59 -52.92,101.41 19.86,8.82 81.58,-26.45 81.58,-26.45 0,0 -19.83,39.68 -2.19,48.49 39.93,19.97 127.86,-55.11 127.86,-55.11 0,0 -24.25,37.48 17.64,39.69 18.88,0.98 54.8,-25.39 92.19,-63.31 27.92,47.9 84.91,61.64 103.33,-3.12 2.56,-9.09 4.86,-19.66 6.91,-31.09 -209.25,39.48 -475.07,-97.23 -380.44,-375.42z"/>
   <path class="fil26" d="M3914.7 1041.83c-62.44,56.73 9.58,188.99 90.48,154.98 64.86,-27.27 128.45,-148.81 128.45,-148.81l-218.93 -6.17z"/>
   <path class="fil27" d="M3891.13 1097.97c94.67,-5.61 159.24,5.01 201.38,19.26 25.44,-35.21 47.7,-68.69 47.7,-68.69l-225.51 -6.71c-16.44,14.95 -23.48,35.14 -23.57,56.14z"/>
   <path class="fil27" d="M4014 1185.41c-71.02,29.86 -135.15,-68.4 -107.54,-131.21 -46.92,60.47 21.85,178.22 98.72,145.9 50.27,-21.13 99.76,-98.84 119.48,-132.77 -5.18,8.38 -12.63,11.48 -19.53,21.45 -24.37,35.18 -56.88,82.23 -91.13,96.63z"/>
   <path class="fil1" d="M3387.71 827.98c0.7,30.75 230.5,101.31 279.33,111.15l0.81 -114.92c0,0 -94.22,-25.21 -173.08,-27.79 -58.16,-1.91 -107.46,14.52 -107.06,31.56z"/>
   <path class="fil28" d="M3897.98 1068.19c-47.23,97.01 -175.03,129.35 -219.49,44.1 -44.45,-85.25 -31.09,-230.42 31.6,-285.9 133.77,-118.43 265.7,77.2 265.7,77.2l-77.81 164.6z"/>
   <path class="fil29" d="M3925.81 833.05c-41.16,26.45 14.7,82.3 32.35,76.41l76.41 -8.81c35.28,-82.32 -67.61,-94.06 -108.76,-67.6z"/>
   <path class="fil1" d="M3946.4 824.24c-0.93,3.09 -1.49,6.28 -1.49,9.54 0,28.81 38.16,52.17 85.23,52.17 3.24,0 6.42,-0.13 9.57,-0.34 14.53,-58.26 -49.94,-73.3 -93.31,-61.37z"/>
   <path class="fil30" d="M3801.97 926.6c2.62,-20.73 -5.81,-40.84 -19.7,-45.01 -14.78,-4.41 -29.75,10.91 -32.43,34.3 -2.63,23.12 8,43.16 22.85,44.88 13.92,1.63 26.66,-13.63 29.28,-34.17z"/>
   <path class="fil28" d="M3788.04 911c1.06,-7.67 -2.07,-15.2 -7.34,-16.84 -5.63,-1.73 -11.4,3.86 -12.5,12.54 -1.11,8.56 2.88,16.06 8.53,16.8 5.3,0.69 10.24,-4.89 11.31,-12.5z"/>
   <path class="fil31" d="M3960.56 856.07c-3.46,-8.87 -10.95,-15.17 -17.07,-13.98 -6.52,1.31 -8.88,10.55 -4.89,20.49 3.94,9.81 12.22,15.62 18.19,13.24 5.6,-2.24 7.16,-10.99 3.77,-19.75z"/>
   <path class="fil27" d="M3977.04 896.38c-87.23,16.75 -98.98,187.58 -98.98,187.58 4.26,-0.28 8.25,-0.44 12.38,-0.66 7.46,-47.49 31.09,-149.33 86.6,-186.92z"/>
   <path class="fil32" d="M3886.13 1083.96c0,0 16.68,-175.05 99.97,-189.9 83.28,-14.82 186.55,65.28 189.9,275.95 0,0 -16.66,-103.85 -289.87,-86.05z"/>
   <path class="fil33" d="M4175.57 1168.21c0.31,1.13 0.43,1.8 0.43,1.8 -3.35,-210.67 -106.62,-290.77 -189.9,-275.95 -30.13,5.36 -51.49,31.72 -66.56,63.13 106.66,3.74 239.28,105.6 256.03,211.02z"/>
   <path class="fil27" d="M3899.68 1083.78c-1.51,-9.81 -8.93,-16.79 -16.59,-15.63 -7.68,1.18 -12.69,10.07 -11.21,19.88 1.47,9.79 8.89,16.79 16.58,15.61 7.65,-1.16 12.68,-10.06 11.22,-19.86z"/>
   <path class="fil1" d="M3448.13 713.61c-7.71,29.76 175.63,96.26 219.72,119.42l21.71 -83.04c0,0 -233.71,-66.14 -241.43,-36.38z"/>
   <path class="fil32" d="M3903.99 1086.02c6.95,-6.02 8.68,-15.33 3.87,-20.75 -4.82,-5.45 -14.34,-4.99 -21.29,1.05 -6.95,6.01 -8.68,15.32 -3.86,20.75 4.79,5.46 14.33,4.98 21.28,-1.05z"/>
   <path class="fil27" d="M4030.81 913.38c4.95,-4.92 -32.14,-17.24 -46.51,-12.97 -14.33,4.28 -20.86,13.82 -12.94,16.34 7.36,2.34 54.99,1.02 59.45,-3.37z"/>
   <path class="fil1" d="M3727.92 910.83c-17.22,41.53 -23.94,163 64.55,125.31l-0.6 -1.32c-73.58,26.07 -76.24,-75.09 -63.95,-123.99z"/>
   <path class="fil1" d="M3809.29 958.92c19.75,-32.83 40.76,-134.33 -38.58,-113.74l0.34 1.18c65.27,-12.68 54.76,72.9 38.24,112.56z"/>
   <polygon class="fil3" points="3531.92,1880.99 3562.8,1744.28 3561.12,1863.68 "/>
   <polygon class="fil3" points="4243.28,1898.98 4246.58,1796.47 4261.61,1895.84 "/>
   <path class="fil1" d="M4077.92 1897.88c-26.44,134.48 -94.79,224.87 -94.79,224.87l46.3 46.3c55.11,-114.65 48.49,-271.17 48.49,-271.17z"/>
   <path class="fil1" d="M3778.6 1772.77c-3.19,137.02 -55.19,237.71 -55.19,237.71l53.51 37.76c34.82,-122.35 1.68,-275.47 1.68,-275.47z"/>
   <path class="fil1" d="M4161.81 1894.57c-42.61,130.27 -121.43,211.68 -121.43,211.68l40.33 51.59c68.63,-107.1 81.1,-263.27 81.1,-263.27z"/>
   <path class="fil1" d="M3921.09 1776.6c-43.9,187.25 -135.65,309.36 -135.65,309.36l53.05 68.56c77.51,-157.22 82.6,-377.92 82.6,-377.92z"/>
   <path class="fil34" d="M6752.29 3916.25l-15.34 4.39c6.57,14.61 13.87,40.18 27.03,35.06 13.14,-5.11 -11.69,-39.45 -11.69,-39.45z"/>
   <path class="fil34" d="M6433.02 3935.6c-16.47,10.95 -51.56,1.07 -7.68,-26.35 19.95,-12.48 35.08,21.94 84.42,32.91 8.83,1.96 2.21,23.02 2.21,23.02l-78.95 -29.58z"/>
   <path class="fil34" d="M6220 3946.36l-42.22 -40.61c0,0 -36.91,149.63 -20.82,217.84l50.11 -19.15c0,0 -24.02,-59.8 12.93,-158.08z"/>
   <path class="fil34" d="M6710.45 3817.15l-55.93 -12.06c0,0 42.73,103.85 89.49,130.16l25.65 -16.11c0,0 -48.25,-29.62 -59.21,-101.99z"/>
   <path class="fil35" d="M5790.41 4505.81l608.63 0 -184.25 -200.68c0,0 32.91,-161.21 69.09,-197.39l98.69 -65.8 319.13 -72.37 108.54 -55.93c0,0 282.92,-154.61 565.85,-16.43l138.17 -23.03 42.77 6.57 134.87 -75.66 -151.32 55.92c0,0 -282.92,-6.57 -335.57,-65.8 0,0 -243.44,-9.86 -480.31,144.76l-72.37 26.32c0,0 -180.93,-6.58 -220.42,-39.48 0,0 -233.57,177.64 -391.48,230.28l-92.1 128.31 -26.34 85.54c0,0 -118.4,65.78 -131.58,134.87z"/>
   <path class="fil36" d="M6652.33 3966.29c0,0 -180.93,-6.58 -220.42,-39.48 0,0 -233.57,177.64 -391.48,230.28l-92.1 128.31 -23.69 77.01c88.68,-88.13 106.21,87.25 474.4,143.4l-155.79 -202.29c0,0 4.45,-159.6 40.63,-195.78l98.69 -65.8 319.13 -72.37 108.54 -55.93c0,0 101.6,-55.5 243.92,-70.27 -8.29,-9.73 -17.59,-19.15 -27.87,-28.21 -86.58,18.81 -194.77,55.07 -301.59,124.81l-72.37 26.32z"/>
   <path class="fil37" d="M7128.26 3710.78c-7.69,-48.25 -62.51,-19.74 -62.51,-19.74 0,0 19.47,-174.02 -341.05,-228.09 -43.84,-6.58 8.79,153.54 8.79,153.54 0,0 -127.21,-322.42 -443.04,-236.88 -315.82,85.53 -504.44,682.09 -320.2,888.24 184.24,206.15 677.71,263.18 791.74,-30.7 19.75,-47.71 28.52,-143.66 -43.86,-174.36 -103.52,-43.92 -219.3,108.57 -159,188.61 60.29,80.05 113.03,26.44 126.67,-8.21 30.15,-76.76 -30.18,-107.48 -54.85,-102 -24.67,5.49 -29.07,43.33 -13.13,52.09 15.88,8.77 17.51,34 6.02,43.88 -11.51,9.87 -39.48,9.87 -38.4,-43.88 1.1,-53.73 67.45,-92.11 117.33,-70.18 111.8,49.15 -129.24,426.84 -526.35,195.19 -184.23,-107.47 -121.81,-308.99 -13.17,-337.75 74.58,-19.73 326.82,-144.75 449.62,-149.14 40.49,-1.44 78.83,4.26 116.83,9.97 77.28,11.6 153.16,23.2 242.84,-25.31 133.8,-72.38 160.22,-77.03 155.72,-105.28z"/>
   <path class="fil38" d="M6748.36 4213.76c-114.05,293.89 -590.76,221.37 -774.99,15.22 -7.29,-8.14 -30.68,-1.48 -36.8,-10.81 9.42,18.32 20.56,35.01 33.68,49.68 184.24,206.15 677.71,263.18 791.74,-30.7 15.71,-37.96 24.41,-106.41 -9.09,-148.29 16.73,40.9 8.49,93.43 -4.54,124.9z"/>
   <path class="fil38" d="M6719.85 3593.09c0,0 -1.65,-4.98 -4.06,-13.02 -4.01,-7.36 -8.67,-15.47 -14.08,-24.21 12.26,22.41 18.14,37.23 18.14,37.23z"/>
   <path class="fil38" d="M7063.2 3663.12c-3.27,-14.66 -10.18,-33.98 -24.73,-54.98 16.45,34.24 13.65,59.51 13.65,59.51 0,0 4.48,-2.33 11.08,-4.53z"/>
   <path class="fil38" d="M6608.5 4173.06c-0.06,8.63 2.95,16.52 9.05,20.05 -0.44,-7.46 -3.43,-14.97 -9.05,-20.05z"/>
   <path class="fil38" d="M7128.26 3710.78c-2,-12.52 -7.18,-19.83 -13.75,-23.86l0.11 0.47c22,35.48 -10.8,45.91 -144.58,118.27 -87.07,47.11 -165.84,32.05 -244.08,17 -42,-8.08 -83.84,-16.17 -126.73,-14.64 -122.82,4.39 -377.87,125.03 -452.44,144.77 -52.75,13.95 -123.34,17.57 -131.65,83.93 -10.37,82.85 35.37,140.65 63.58,182.31 -50.56,-102.1 8.89,-211.43 89.03,-232.62 74.56,-19.76 322.89,-143.24 445.71,-147.62 38.81,-1.39 75.6,3.06 111.98,7.51 78.74,9.63 155.6,19.25 247.1,-30.24 133.8,-72.38 160.22,-77.03 155.72,-105.28z"/>
   <path class="fil38" d="M6714.64 4130.72c-3.49,-14.09 -11.85,-25 -25.48,-31.01 -49.91,-21.92 -116.26,16.46 -117.36,70.18 -0.57,27.91 6.72,41.26 15.43,46.32 -1.25,-6.27 -1.98,-13.76 -1.79,-22.93 0.26,-12.62 4.15,-24.36 10.54,-34.7 -4.17,-14.61 2.95,-36.67 21.34,-40.77 6.8,-1.52 16.36,-0.24 25.94,3.97 19.24,-6.62 40.56,-7.02 59.51,1.32 4.57,1.99 8.47,4.6 11.87,7.62z"/>
   <path class="fil38" d="M6692.35 4220.8c5.29,-27.92 -2.72,-48.11 -15.08,-61.23 4.9,15.51 4.6,35.47 -5.12,60.23 -13.42,34.12 -64.72,86.51 -123.83,11.8 2.64,6.93 6.12,13.6 10.81,19.8 25.53,33.94 49.73,43.81 70.18,41.32 27.04,-22.35 48.29,-47.35 63.04,-71.92z"/>
   <path class="fil39" d="M6916.1 3621.74c-12.66,-41.91 -50.97,-66.75 -85.63,-55.51 -34.63,11.27 -52.45,54.39 -39.82,96.3 12.65,41.91 50.99,66.76 85.62,55.5 34.64,-11.25 52.47,-54.37 39.83,-96.29z"/>
   <path class="fil40" d="M6385.49 3452.98c203.23,0 233.81,24.85 291.09,65.98 -65.04,-86.93 -188.7,-204.19 -386.08,-150.73 -315.83,85.54 -504.49,693.47 -320.25,899.62 184.24,206.15 677.71,263.18 791.74,-30.7 19.75,-47.71 28.52,-143.66 -43.86,-174.36 -11.82,-5.01 -23.78,-7.35 -35.64,-7.66 -16.98,28.01 7.58,33.57 32.29,47.7 136.38,77.93 -151.5,478.35 -582.13,250.37 -325.06,-172.09 -177.56,-900.22 252.84,-900.22z"/>
   <path class="fil40" d="M7003.62 3727.48c17.92,-15.66 48.11,-27.31 85.64,-34.68 9.58,-1.88 18.95,-3.15 28.01,-3.95 -18.35,-15.06 -51.52,2.19 -51.52,2.19 0,0 17.94,-161.01 -301.56,-221.4 83.21,20.02 287.68,174.3 239.43,257.84z"/>
   <path class="fil41" d="M6055.22 4077.73c11.73,-46.74 44.55,-79.07 81.83,-97.19 -16.81,-54.07 -96.25,-54.09 -122.75,-11.69 -24.23,38.77 0.61,84.63 40.92,108.88z"/>
   <path class="fil38" d="M6124.83 3957.9c-11.75,17.1 -30.41,35.36 -53.87,51.22 -19.35,13.08 -38.99,22.54 -56.67,28 9.8,21.78 29.13,41.85 50.52,54.72 11.76,-46.74 41.16,-85.7 78.43,-103.81 -2.71,-13.35 -9.41,-23.26 -18.41,-30.13z"/>
   <path class="fil41" d="M6586.43 3721.4c-49.64,-1.89 -89.89,34.85 -89.89,82.07 0,12.3 2.8,24.07 7.69,34.79 40.5,-10.17 77.8,-16.68 107.59,-16.6 21.43,0.06 42.29,2.05 62.78,4.96 1.09,-5.27 1.7,-10.7 1.7,-16.31 0,-47.24 -40.24,-87.03 -89.87,-88.91z"/>
   <path class="fil38" d="M6560.11 3804.94c-33.49,0 -37.06,-17.49 -56.76,-33.81 -9.15,20.74 -13.33,50.52 -3.15,72.78 40.5,-10.16 81.28,-18.36 111.06,-18.27 21.43,0.06 69.37,1.48 89.88,4.37 -18.99,-16.06 -25.45,-40.34 -33.87,-57.2 -19.69,15.33 -74.9,32.13 -107.16,32.13z"/>
   <path class="fil40" d="M6911.08 3610.82c-12.99,-39.87 -49.87,-63.63 -82.36,-53.06 -32.48,10.54 -48.28,51.43 -35.29,91.3 13.01,39.86 49.87,63.64 82.36,53.09 32.48,-10.55 48.29,-51.46 35.29,-91.33z"/>
   <path class="fil42" d="M6911.08 3610.82c-3.91,-11.98 -10,-22.49 -17.47,-31.08 0.78,30.35 -14.35,57.15 -39.74,65.41 -22.7,7.39 -47.53,-2.05 -64.88,-21.99 0.22,8.46 1.6,17.19 4.44,25.9 13.01,39.86 49.87,63.64 82.36,53.09 32.48,-10.55 48.29,-51.46 35.29,-91.33z"/>
   <path class="fil43" d="M6888.86 3621.66c-8.1,-24.8 -31.05,-39.62 -51.25,-33.01 -20.23,6.57 -30.07,32.03 -21.97,56.85 8.09,24.81 31.04,39.61 51.24,33.01 20.22,-6.57 30.04,-32.01 21.98,-56.85z"/>
   <path class="fil42" d="M6837.7 3591.12c19.56,-6.37 41.54,6.47 51.33,29.03l-0.13 -0.49c-8.43,-25.84 -32.35,-41.25 -53.4,-34.39 -21.05,6.88 -31.29,33.4 -22.87,59.27 0.59,1.84 1.29,3.62 2.02,5.36 -8.11,-25.71 2.13,-51.94 23.05,-58.78z"/>
   <path class="fil42" d="M6862.38 3659.52c-13.4,5.2 -29.26,-2.94 -36.99,-18.34l0.1 0.32c6.92,17.76 24.22,27.64 38.65,22.02 14.44,-5.58 20.54,-24.52 13.65,-42.3 -0.51,-1.26 -1.05,-2.49 -1.66,-3.66 6.69,17.67 0.57,36.41 -13.75,41.96z"/>
   <path class="fil39" d="M6863.22 3626.45c-2.46,-7.59 -10.33,-11.83 -17.59,-9.48 -7.25,2.37 -11.15,10.41 -8.67,18.01 2.47,7.57 10.31,11.83 17.57,9.47 7.27,-2.34 11.16,-10.42 8.69,-18z"/>
   <path class="fil39" d="M6808.06 3776.59c0,0 -85.52,-98.69 -98.7,-208.37l21.93 35.09c0,0 31.81,122.82 76.77,173.28z"/>
   <path class="fil41" d="M6602.51 3791.7c14.36,-8.34 35.85,-53 1.14,-52.86 -34.72,0.12 -108.75,15.56 -173.51,-11.38 -64.8,-26.94 -61.34,39.29 -18.52,56.22 42.8,16.94 139.97,37.59 190.89,8.02z"/>
   <path class="fil44" d="M6604.71 3783.99c-50.94,29.59 -151.75,-3.83 -194.57,-20.76 -14.34,-5.69 -24.25,-16.91 -28.68,-28.32 -4.89,15.45 6.71,39.5 30.16,48.77 42.8,16.94 148.11,42.76 199.01,13.17 11.15,-6.47 0.63,-16.69 -5.92,-12.86z"/>
   <path class="fil41" d="M6506.47 3960.81c-28.49,-35.1 -153.51,-195.19 -121.71,-232.48 31.79,-37.29 125.02,202.86 159.02,230.28l-37.31 2.2z"/>
   <path class="fil44" d="M6468.29 3828.31c5.67,26.8 4.32,46.52 -5.27,50.81 -6.34,2.83 -15.31,-1.56 -25.33,-11.19 27.42,40.81 56.75,78.02 68.78,92.88l37.31 -2.2c-16.13,-13 -45.59,-73.89 -75.49,-130.3z"/>
   <path class="fil44" d="M6353.5 4083.1c12.13,0.03 9.64,-27.57 -8.13,-47.47 -9.55,-10.74 -27.63,-17.76 -41.01,-20.31 -38.21,-7.25 -29.36,15.16 -29.36,15.16 0,0 27.91,4.31 46.09,18.28 15.86,12.2 21.42,34.29 32.41,34.34z"/>
   <path class="fil44" d="M6559.85 4038.66c11.27,4.52 19.09,-22.1 9.88,-47.16 -4.97,-13.5 -19.2,-26.7 -30.71,-33.99 -32.9,-20.83 -32.9,3.29 -32.9,3.29 0,0 24.4,14.28 36.18,34 10.28,17.17 7.34,39.78 17.55,43.86z"/>
   <path class="fil44" d="M6381.58 3996.41c-29.62,-22.58 -84.24,3.22 -101.59,12.59l15.16 14.24c0,0 36.84,-26.18 67.99,-5.61 29.02,19.16 48.09,1.38 18.44,-21.22z"/>
   <path class="fil44" d="M6616.52 3976.87c-15.34,-33.98 -75.67,-37.27 -95.41,-37.27l6.58 19.73c0,0 44.85,-5.51 62.49,27.43 16.46,30.68 41.68,24.13 26.34,-9.89z"/>
   <path class="fil34" d="M6807.04 3910.19c-13.21,-25.23 -56.39,-12.91 -74.12,-6.5l13.3 18.61c0,0 31.95,-19.95 48.62,2.89 12.34,16.9 22.75,5.19 12.2,-15z"/>
   <path class="fil34" d="M6715.36 3959.33c-14.1,-24.64 14.97,-49.92 28.01,-59.52l8.81 20.86c0,0 -30.13,12.39 -19.46,38.27 7.88,19.15 -6.03,20.15 -17.36,0.39z"/>
   <path class="fil41" d="M6032.31 4022.44c69.86,-4.85 105.2,-148.69 150.93,-153.53 16.88,-1.81 25.91,-65.04 4.13,-66.02 -21.78,-0.98 -117.72,83.47 -159.29,157.26 -24.15,42.83 -13.61,63.54 4.23,62.29z"/>
   <path class="fil44" d="M6196.54 3809.21c-1.64,15.33 -7.42,29.94 -15.33,30.78 -45.6,4.92 -70.89,171.46 -140.61,176.36 -9.11,0.65 -39.27,24.47 -22.7,19.6 149.1,-43.71 121.48,-161.51 167.08,-166.42 13.66,-1.46 20.96,-43.9 11.56,-60.32z"/>
   <path class="fil41" d="M6187.37 3802.89c-23.29,-4.34 -44.64,66.39 -14.82,69.64 29.8,3.23 68.29,104.24 91.94,167.96l36.93 -23.76c-21.46,-63.72 -90.74,-209.51 -114.05,-213.84z"/>
   <path class="fil44" d="M6229.58 3858.4c13.27,46.58 14.7,87.64 4.42,104.48 11.39,26.47 21.91,54.49 30.49,77.61l36.93 -23.76c-13.17,-39.11 -44.34,-109.06 -71.84,-158.33z"/>
   <path class="fil44" d="M6285.11 4127.69c-6.52,10.76 -29.26,-5.28 -37,-30.98 -4.2,-13.84 -0.57,-33.34 4.45,-46.46 14.35,-37.47 29.12,-18.4 29.12,-18.4 0,0 -11.35,26.86 -8.98,49.96 2.06,20.14 18.34,36.11 12.41,45.88z"/>
   <path class="fil45" d="M6952.5 3791.3l-6.57 -7.31c4.74,-20.82 59.72,-71.25 120.02,-98.15l2.41 3.96c-63.09,28.15 -91.74,53.28 -115.86,101.5z"/>
   <path class="fil39" d="M7041.64 3644.43c-7.75,15.49 -29.95,-40.92 -25.57,-46.75 0,0 35.07,27.76 25.57,46.75z"/>
   <path class="fil37" d="M6063.97 3555.29c74.71,-93.47 189.27,-191.14 315.17,-194.36 133,-3.41 225.56,87.18 225.56,87.18 -210.38,-112.1 -364.21,-70.91 -540.73,107.18z"/>
   <path class="fil46" d="M6587.65 3640.04c-3.78,0 -6.82,-3.06 -6.82,-6.8 0,-3.78 3.04,-6.82 6.82,-6.82 3.75,0 6.83,3.04 6.83,6.82 0,3.74 -3.08,6.8 -6.83,6.8z"/>
   <path class="fil46" d="M6461.9 3709.25c-3.76,0 -6.8,-3.04 -6.8,-6.8 0,-3.78 3.04,-6.83 6.8,-6.83 3.77,0 6.83,3.05 6.83,6.83 0,3.76 -3.06,6.8 -6.83,6.8z"/>
   <path class="fil46" d="M6638.3 3570.86c-3.78,0 -6.82,-3.04 -6.82,-6.8 0,-3.78 3.04,-6.82 6.82,-6.82 3.76,0 6.82,3.04 6.82,6.82 0,3.76 -3.06,6.8 -6.82,6.8z"/>
   <path class="fil46" d="M6723.06 3774c-3.76,0 -6.84,-3.05 -6.84,-6.82 0,-3.76 3.08,-6.8 6.84,-6.8 3.75,0 6.82,3.04 6.82,6.8 0,3.77 -3.07,6.82 -6.82,6.82z"/>
   <path class="fil46" d="M6877.96 3541.65c-3.75,0 -6.81,-3.05 -6.81,-6.83 0,-3.09 2.06,-5.69 4.87,-6.53 2.93,2.09 5.85,4.22 8.77,6.38 0,0.05 0,0.1 0,0.15 0,3.78 -3.06,6.83 -6.83,6.83z"/>
   <path class="fil47" d="M6884.79 3534.67c-2.92,-2.16 -5.84,-4.29 -8.77,-6.38 0.61,-0.19 1.27,-0.29 1.94,-0.29 3.72,0 6.75,2.98 6.83,6.67z"/>
   <path class="fil46" d="M6967.09 3635.16c-3.76,0 -6.79,-3.05 -6.79,-6.8 0,-3.78 3.03,-6.83 6.79,-6.83 3.79,0 6.84,3.05 6.84,6.83 0,3.75 -3.05,6.8 -6.84,6.8z"/>
   <path class="fil46" d="M7044.57 3738.93c-3.77,0 -6.83,-3.07 -6.83,-6.81 0,-3.78 3.06,-6.83 6.83,-6.83 3.75,0 6.81,3.05 6.81,6.83 0,3.74 -3.06,6.81 -6.81,6.81z"/>
   <path class="fil46" d="M6536.98 3703.85c-3.76,0 -6.83,-3.05 -6.83,-6.81 0,-3.78 3.07,-6.82 6.83,-6.82 3.76,0 6.83,3.04 6.83,6.82 0,3.76 -3.07,6.81 -6.83,6.81z"/>
   <path class="fil46" d="M6766.88 3550.41c-3.75,0 -6.8,-3.06 -6.8,-6.82 0,-3.76 3.05,-6.82 6.8,-6.82 3.79,0 6.84,3.06 6.84,6.82 0,3.76 -3.05,6.82 -6.84,6.82z"/>
   <path class="fil46" d="M6695.77 3683.4c-3.75,0 -6.81,-3.05 -6.81,-6.82 0,-3.77 3.06,-6.82 6.81,-6.82 3.77,0 6.84,3.05 6.84,6.82 0,3.77 -3.07,6.82 -6.84,6.82z"/>
   <path class="fil46" d="M6924.72 3722.86c-3.75,0 -6.81,-3.07 -6.81,-6.81 0,-3.76 3.06,-6.83 6.81,-6.83 3.78,0 6.83,3.07 6.83,6.83 0,3.74 -3.05,6.81 -6.83,6.81z"/>
   <path class="fil46" d="M6844.36 3771.56c-3.77,0 -6.83,-3.05 -6.83,-6.8 0,-3.77 3.06,-6.84 6.83,-6.84 3.76,0 6.8,3.07 6.8,6.84 0,3.75 -3.04,6.8 -6.8,6.8z"/>
   <path class="fil46" d="M6779.18 3832.14c-1.99,-0.3 -3.98,-0.61 -5.97,-0.92 -1.75,-1.24 -2.9,-3.27 -2.9,-5.58 0,-3.77 3.05,-6.83 6.81,-6.83 3.79,0 6.83,3.06 6.83,6.83 0,3.04 -2,5.63 -4.77,6.5z"/>
   <path class="fil48" d="M6777.12 3832.46c-1.45,0 -2.8,-0.45 -3.91,-1.24 1.99,0.31 3.98,0.62 5.97,0.92 -0.64,0.21 -1.33,0.32 -2.06,0.32z"/>
   <path class="fil46" d="M6766.88 3679.01c-3.75,0 -6.8,-3.05 -6.8,-6.81 0,-3.77 3.05,-6.83 6.8,-6.83 3.79,0 6.86,3.06 6.86,6.83 0,3.76 -3.07,6.81 -6.86,6.81z"/>
   <path class="fil46" d="M6901.34 3800.31c-3.75,0 -6.81,-3.05 -6.81,-6.83 0,-3.75 3.06,-6.81 6.81,-6.81 3.78,0 6.84,3.06 6.84,6.81 0,3.78 -3.06,6.83 -6.84,6.83z"/>
   <path class="fil46" d="M6378.17 3543.11c-3.77,0 -6.83,-3.08 -6.83,-6.84 0,-3.75 3.06,-6.81 6.83,-6.81 3.77,0 6.83,3.06 6.83,6.81 0,3.76 -3.06,6.84 -6.83,6.84z"/>
   <path class="fil46" d="M6256.88 3550.9c-3.75,0 -6.81,-3.06 -6.81,-6.81 0,-3.79 3.06,-6.84 6.81,-6.84 3.76,0 6.82,3.05 6.82,6.84 0,3.75 -3.06,6.81 -6.82,6.81z"/>
   <path class="fil47" d="M6350.89 3452.5c-3.77,0 -6.82,-3.07 -6.82,-6.82 0,-3.77 3.05,-6.82 6.82,-6.82 3.77,0 6.83,3.05 6.83,6.82 0,3.75 -3.06,6.82 -6.83,6.82z"/>
   <path class="fil47" d="M6262.84 3460.17c-3.75,0 -6.79,-3.04 -6.79,-6.8 0,-3.78 3.04,-6.83 6.79,-6.83 3.79,0 6.84,3.05 6.84,6.83 0,3.76 -3.05,6.8 -6.84,6.8z"/>
   <path class="fil46" d="M6579.84 3491.96c-3.75,0 -6.81,-3.06 -6.81,-6.82 0,-3.76 3.06,-6.82 6.81,-6.82 3.76,0 6.83,3.06 6.83,6.82 0,3.76 -3.07,6.82 -6.83,6.82z"/>
   <path class="fil46" d="M6499.48 3540.68c-3.76,0 -6.84,-3.06 -6.84,-6.83 0,-3.75 3.08,-6.82 6.84,-6.82 3.75,0 6.81,3.07 6.81,6.82 0,3.77 -3.06,6.83 -6.81,6.83z"/>
   <path class="fil47" d="M6502.4 3432.03c-3.77,0 -6.81,-3.04 -6.81,-6.81 0,-3.77 3.04,-6.82 6.81,-6.82 3.76,0 6.81,3.05 6.81,6.82 0,3.77 -3.05,6.81 -6.81,6.81z"/>
   <path class="fil46" d="M6432.24 3601.57c-3.76,0 -6.8,-3.06 -6.8,-6.82 0,-3.78 3.04,-6.84 6.8,-6.84 3.78,0 6.83,3.06 6.83,6.84 0,3.76 -3.05,6.82 -6.83,6.82z"/>
   <path class="fil46" d="M6350.89 3683.4c-3.77,0 -6.82,-3.05 -6.82,-6.82 0,-3.77 3.05,-6.82 6.82,-6.82 3.77,0 6.83,3.05 6.83,6.82 0,3.77 -3.06,6.82 -6.83,6.82z"/>
   <path class="fil47" d="M6422.03 3448.11c-3.78,0 -6.84,-3.07 -6.84,-6.81 0,-3.76 3.06,-6.82 6.84,-6.82 3.74,0 6.81,3.06 6.81,6.82 0,3.74 -3.07,6.81 -6.81,6.81z"/>
   <path class="fil46" d="M6312.41 3614.71c-3.76,0 -6.81,-3.05 -6.81,-6.82 0,-3.76 3.05,-6.81 6.81,-6.81 3.75,0 6.83,3.05 6.83,6.81 0,3.77 -3.08,6.82 -6.83,6.82z"/>
   <path class="fil46" d="M6536.02 3605.93c-3.78,0 -6.85,-3.04 -6.85,-6.81 0,-3.76 3.07,-6.82 6.85,-6.82 3.76,0 6.81,3.06 6.81,6.82 0,3.77 -3.05,6.81 -6.81,6.81z"/>
   <path class="fil46" d="M6286.11 3873.86c-3.76,0 -6.82,-3.05 -6.82,-6.8 0,-3.77 3.06,-6.82 6.82,-6.82 3.77,0 6.82,3.05 6.82,6.82 0,3.75 -3.05,6.8 -6.82,6.8z"/>
   <path class="fil46" d="M6350.41 3772.54c-3.78,0 -6.82,-3.05 -6.82,-6.81 0,-3.79 3.04,-6.82 6.82,-6.82 3.76,0 6.8,3.03 6.8,6.82 0,3.76 -3.04,6.81 -6.8,6.81z"/>
   <path class="fil46" d="M6373.79 3838.29c-3.78,0 -6.82,-3.04 -6.82,-6.81 0,-3.77 3.04,-6.83 6.82,-6.83 3.76,0 6.81,3.06 6.81,6.83 0,3.77 -3.05,6.81 -6.81,6.81z"/>
   <path class="fil46" d="M6291.94 3693.63c-3.75,0 -6.8,-3.07 -6.8,-6.82 0,-3.76 3.05,-6.82 6.8,-6.82 3.77,0 6.83,3.06 6.83,6.82 0,3.75 -3.06,6.82 -6.83,6.82z"/>
   <path class="fil46" d="M6211.59 3742.33c-3.77,0 -6.82,-3.05 -6.82,-6.8 0,-3.77 3.05,-6.83 6.82,-6.83 3.74,0 6.81,3.06 6.81,6.83 0,3.75 -3.07,6.8 -6.81,6.8z"/>
   <path class="fil46" d="M6178.04 3562.67c-3.78,0 -6.81,-3.05 -6.81,-6.81 0,-3.76 3.03,-6.82 6.81,-6.82 3.77,0 6.82,3.06 6.82,6.82 0,3.76 -3.05,6.81 -6.82,6.81z"/>
   <path class="fil46" d="M6214.49 3633.7c-3.77,0 -6.81,-3.05 -6.81,-6.81 0,-3.76 3.04,-6.81 6.81,-6.81 3.77,0 6.84,3.05 6.84,6.81 0,3.76 -3.07,6.81 -6.84,6.81z"/>
   <path class="fil47" d="M6082.96 3588.41c-3.76,0 -6.8,-3.06 -6.8,-6.82 0,-3.77 3.04,-6.82 6.8,-6.82 3.78,0 6.84,3.05 6.84,6.82 0,3.76 -3.06,6.82 -6.84,6.82z"/>
   <path class="fil46" d="M6148.73 3806.17c-3.75,0 -6.81,-3.07 -6.81,-6.82 0,-3.79 3.06,-6.83 6.81,-6.83 3.77,0 6.83,3.04 6.83,6.83 0,3.75 -3.06,6.82 -6.83,6.82z"/>
   <path class="fil46" d="M6078.59 3861.19c-3.76,0 -6.82,-3.05 -6.82,-6.82 0,-3.75 3.06,-6.81 6.82,-6.81 3.76,0 6.82,3.06 6.82,6.81 0,3.77 -3.06,6.82 -6.82,6.82z"/>
   <path class="fil46" d="M6002.61 3916.73c-3.78,0 -6.84,-3.05 -6.84,-6.81 0,-3.77 3.06,-6.83 6.84,-6.83 3.75,0 6.81,3.06 6.81,6.83 0,3.76 -3.06,6.81 -6.81,6.81z"/>
   <path class="fil46" d="M5974.88 4064.3c-3.75,0 -6.81,-3.05 -6.81,-6.81 0,-3.78 3.06,-6.81 6.81,-6.81 3.76,0 6.82,3.03 6.82,6.81 0,3.76 -3.06,6.81 -6.82,6.81z"/>
   <path class="fil46" d="M6015.73 4126.83c-3.77,0 -6.82,-3.06 -6.82,-6.81 0,-3.76 3.05,-6.82 6.82,-6.82 3.77,0 6.84,3.06 6.84,6.82 0,3.75 -3.07,6.81 -6.84,6.81z"/>
   <path class="fil46" d="M6065.28 4303.55c-2.7,-2.68 -5.34,-5.41 -7.94,-8.2 0.41,-0.08 0.84,-0.11 1.27,-0.11 3.78,0 6.84,3.03 6.84,6.81 0,0.51 -0.06,1.01 -0.17,1.5z"/>
   <path class="fil47" d="M6058.61 4308.86c-3.76,0 -6.8,-3.04 -6.8,-6.81 0,-3.34 2.37,-6.1 5.53,-6.7 2.6,2.79 5.24,5.52 7.94,8.2 -0.69,3.04 -3.41,5.31 -6.67,5.31z"/>
   <path class="fil46" d="M6176.51 4350.76c-3.79,0 -6.85,-3.06 -6.85,-6.81 0,-3.77 3.06,-6.82 6.85,-6.82 3.76,0 6.82,3.05 6.82,6.82 0,3.75 -3.06,6.81 -6.82,6.81z"/>
   <path class="fil47" d="M5997.26 4250.42c-3.79,0 -6.83,-3.06 -6.83,-6.83 0,-3.77 3.04,-6.82 6.83,-6.82 3.73,0 6.8,3.05 6.8,6.82 0,3.77 -3.07,6.83 -6.8,6.83z"/>
   <path class="fil48" d="M6228.76 4394.88c-3.39,-1.14 -6.81,-2.33 -10.21,-3.54 1.07,-0.71 2.36,-1.13 3.74,-1.13 3,0 5.56,1.96 6.47,4.67z"/>
   <path class="fil47" d="M6222.29 4403.87c-3.77,0 -6.81,-3.06 -6.81,-6.82 0,-2.39 1.22,-4.49 3.07,-5.71 3.4,1.21 6.82,2.4 10.21,3.54 0.22,0.68 0.34,1.41 0.34,2.17 0,3.76 -3.05,6.82 -6.81,6.82z"/>
   <path class="fil46" d="M6337.25 4404.54c-4.5,-0.57 -8.94,-1.19 -13.43,-1.86 0.74,-2.96 3.42,-5.16 6.62,-5.16 3.77,0 6.81,3.06 6.81,6.82 0,0.07 0,0.13 0,0.2z"/>
   <path class="fil48" d="M6330.44 4411.17c-3.77,0 -6.83,-3.06 -6.83,-6.83 0,-0.57 0.07,-1.13 0.21,-1.66 4.49,0.67 8.93,1.29 13.43,1.86 -0.1,3.68 -3.1,6.63 -6.81,6.63z"/>
   <path class="fil48" d="M6440.98 4419.6c1.2,-1.01 2.74,-1.62 4.42,-1.62 1.07,0 2.08,0.25 2.99,0.69 -2.45,0.33 -4.93,0.64 -7.41,0.93z"/>
   <path class="fil47" d="M6445.4 4431.61c-3.75,0 -6.82,-3.04 -6.82,-6.81 0,-2.08 0.94,-3.94 2.4,-5.2 2.48,-0.29 4.96,-0.6 7.41,-0.93 2.27,1.11 3.84,3.44 3.84,6.13 0,3.77 -3.07,6.81 -6.83,6.81z"/>
   <path class="fil46" d="M6527.34 4396.75c-0.07,-0.38 -0.1,-0.77 -0.1,-1.17 0,-3.77 3.04,-6.82 6.8,-6.82 3,0 5.54,1.93 6.46,4.61 -4.35,1.2 -8.74,2.32 -13.16,3.38z"/>
   <path class="fil48" d="M6528.57 4399.65c-0.62,-0.84 -1.05,-1.83 -1.23,-2.9 4.42,-1.06 8.81,-2.18 13.16,-3.38 0.2,0.57 0.32,1.17 0.36,1.8 -4.03,1.54 -8.16,3.05 -12.29,4.48z"/>
   <path class="fil47" d="M6534.04 4402.39c-2.24,0 -4.22,-1.08 -5.47,-2.74 4.13,-1.43 8.26,-2.94 12.29,-4.48 0.01,0.13 0.01,0.27 0.01,0.41 0,3.77 -3.06,6.81 -6.83,6.81z"/>
   <path class="fil47" d="M6634.72 4379.17c-2.77,0 -5.04,-1.13 -5.64,-3.08 -0.82,-2.66 1.86,-5.8 5.94,-7.05 1.12,-0.33 2.24,-0.49 3.28,-0.49 2.77,0 5.05,1.12 5.63,3.07 0.81,2.66 -1.87,5.82 -5.97,7.06 -1.1,0.34 -2.2,0.49 -3.24,0.49z"/>
   <path class="fil46" d="M6676.17 4308.25c-0.96,-0.1 -1.76,-0.5 -2.27,-1.17 -1.4,-1.86 -0.09,-5.16 2.87,-7.38 1.67,-1.25 3.52,-1.89 5.06,-1.89 1.22,0 2.24,0.4 2.84,1.22 0.05,0.07 0.1,0.13 0.14,0.21 -2.79,3.03 -5.68,6.03 -8.64,9.01z"/>
   <path class="fil47" d="M6676.73 4308.28c-0.2,0 -0.38,-0.01 -0.56,-0.03 2.96,-2.98 5.85,-5.98 8.64,-9.01 1.13,1.87 -0.17,5.01 -3.03,7.16 -1.67,1.24 -3.51,1.88 -5.05,1.88z"/>
   <path class="fil47" d="M6752.29 4227.72c-0.2,0 -0.41,-0.02 -0.61,-0.05 -2.63,-0.42 -4.31,-3.75 -3.73,-7.38 0.57,-3.4 2.88,-5.89 5.32,-5.89 0.19,0 0.38,0.01 0.57,0.04 2.66,0.45 4.33,3.77 3.74,7.42 -0.55,3.36 -2.84,5.86 -5.29,5.86z"/>
   <path class="fil47" d="M6732.25 4279.7c-0.12,0 -0.22,-0.02 -0.32,-0.06 -1.2,-0.48 -1.11,-3.7 0.21,-7.17 1.2,-3.2 3.03,-5.51 4.25,-5.51 0.1,0 0.21,0.02 0.31,0.05 1.2,0.48 1.15,3.68 -0.18,7.16 -1.23,3.19 -3.06,5.53 -4.27,5.53z"/>
   <path class="fil46" d="M6741.2 4170.98c-1.65,0 -3.33,-2.7 -3.82,-6.2 -0.49,-3.67 0.5,-6.86 2.23,-7.09 0.07,0 0.14,-0.01 0.21,-0.01 1.67,0 3.32,2.71 3.82,6.22 0.49,3.66 -0.51,6.82 -2.21,7.06 -0.08,0.01 -0.16,0.02 -0.23,0.02z"/>
   <path class="fil46" d="M6584.86 4258.72c-2.06,0 -4.36,-1.57 -5.68,-4.12 -1.72,-3.28 -1.16,-6.97 1.23,-8.19 0.53,-0.27 1.12,-0.4 1.72,-0.4 2.08,0 4.37,1.56 5.69,4.12 1.7,3.27 1.15,6.94 -1.26,8.18 -0.53,0.28 -1.1,0.41 -1.7,0.41z"/>
   <path class="fil46" d="M6569.05 4175.71c-0.22,0 -0.43,-0.03 -0.64,-0.06 -2.64,-0.48 -4.25,-3.83 -3.6,-7.46 0.6,-3.34 2.93,-5.78 5.37,-5.78 0.21,0 0.42,0.02 0.63,0.06 0.55,0.1 1.04,0.31 1.49,0.64 -0.28,2.23 -0.45,4.49 -0.5,6.78 -0.03,1.63 -0.04,3.23 -0.01,4.77 -0.83,0.66 -1.78,1.05 -2.74,1.05z"/>
   <path class="fil48" d="M6571.79 4174.66c-0.03,-1.54 -0.02,-3.14 0.01,-4.77 0.05,-2.29 0.22,-4.55 0.5,-6.78 1.71,1.23 2.62,3.94 2.09,6.83 -0.35,2.01 -1.34,3.7 -2.6,4.72z"/>
   <path class="fil48" d="M6663.87 4256.94c-0.19,0 -0.39,-0.01 -0.59,-0.04 -2.66,-0.42 -4.33,-3.74 -3.73,-7.4 0.56,-3.38 2.85,-5.86 5.31,-5.86 0.19,0 0.38,0.01 0.57,0.04 2.67,0.43 4.33,3.77 3.74,7.41 -0.56,3.37 -2.86,5.85 -5.3,5.85z"/>
   <path class="fil46" d="M6630.23 4184.62c-0.18,0 -0.38,-0.01 -0.56,-0.04 -2.65,-0.45 -4.33,-3.78 -3.72,-7.4 0.55,-3.39 2.84,-5.88 5.29,-5.88 0.19,0 0.39,0.02 0.58,0.05 2.65,0.42 4.33,3.74 3.75,7.39 -0.57,3.4 -2.89,5.88 -5.34,5.88z"/>
   <path class="fil46" d="M6638.77 4079.44c-1.79,0 -3.34,-0.71 -4.1,-2.05 -1.33,-2.33 0.24,-5.69 3.44,-7.54 1.35,-0.77 2.79,-1.15 4.1,-1.15 1.79,0 3.34,0.71 4.1,2.05 1.32,2.32 -0.23,5.72 -3.46,7.54 -1.34,0.77 -2.78,1.15 -4.08,1.15z"/>
   <path class="fil46" d="M6706.18 4110.59c-0.67,0 -1.37,-0.08 -2.07,-0.26 -1.77,-1.95 -3.73,-3.74 -5.9,-5.35 -0.1,-0.65 -0.06,-1.29 0.16,-1.89 0.67,-1.76 2.64,-2.77 4.97,-2.77 0.98,0 2.02,0.18 3.06,0.57 3.52,1.3 5.62,4.42 4.71,6.9 -0.65,1.78 -2.61,2.8 -4.93,2.8z"/>
   <path class="fil48" d="M6704.11 4110.33c-0.35,-0.09 -0.69,-0.19 -1.05,-0.33 -2.65,-0.97 -4.5,-3 -4.85,-5.02 2.17,1.61 4.13,3.4 5.9,5.35z"/>
   <path class="fil47" d="M6752.76 4120.72c-2.11,0 -4.4,-1.73 -5.6,-4.43 -1.52,-3.37 -0.76,-7.05 1.67,-8.15 0.48,-0.23 1,-0.33 1.52,-0.33 2.12,0 4.42,1.71 5.6,4.42 1.52,3.39 0.75,7.04 -1.66,8.15 -0.48,0.24 -1,0.34 -1.53,0.34z"/>
   <path class="fil46" d="M6676.34 4183.27c-1.85,0 -3.96,-1.05 -5.5,-2.93 -2.36,-2.89 -2.56,-6.56 -0.47,-8.27 0.71,-0.57 1.58,-0.85 2.52,-0.85 1.85,0 3.96,1.06 5.51,2.95 2.36,2.87 2.55,6.55 0.46,8.26 -0.7,0.57 -1.58,0.84 -2.52,0.84z"/>
   <path class="fil46" d="M6056.67 4243.11c-3.77,0 -6.82,-3.06 -6.82,-6.82 0,-3.77 3.05,-6.82 6.82,-6.82 3.77,0 6.82,3.05 6.82,6.82 0,3.76 -3.05,6.82 -6.82,6.82z"/>
   <path class="fil47" d="M5962.66 4187.58c-3.75,0 -6.83,-3.06 -6.83,-6.82 0,-3.76 3.08,-6.82 6.83,-6.82 3.74,0 6.81,3.06 6.81,6.82 0,3.76 -3.07,6.82 -6.81,6.82z"/>
   <path class="fil47" d="M5942.69 4001.97c-3.77,0 -6.82,-3.05 -6.82,-6.81 0,-3.77 3.05,-6.81 6.82,-6.81 3.76,0 6.81,3.04 6.81,6.81 0,3.76 -3.05,6.81 -6.81,6.81z"/>
   <path class="fil46" d="M6104.9 3728.69c-3.76,0 -6.82,-3.04 -6.82,-6.82 0,-3.75 3.06,-6.81 6.82,-6.81 3.77,0 6.83,3.06 6.83,6.81 0,3.78 -3.06,6.82 -6.83,6.82z"/>
   <path class="fil46" d="M6020.14 3794.96c-3.76,0 -6.82,-3.06 -6.82,-6.83 0,-3.77 3.06,-6.81 6.82,-6.81 3.77,0 6.81,3.04 6.81,6.81 0,3.77 -3.04,6.83 -6.81,6.83z"/>
   <path class="fil47" d="M5966.07 3851.46c-3.77,0 -6.82,-3.06 -6.82,-6.82 0,-3.76 3.05,-6.82 6.82,-6.82 3.77,0 6.81,3.06 6.81,6.82 0,3.76 -3.04,6.82 -6.81,6.82z"/>
   <path class="fil46" d="M6134.12 3649.79c-3.76,0 -6.81,-3.06 -6.81,-6.83 0,-3.76 3.05,-6.83 6.81,-6.83 3.77,0 6.83,3.07 6.83,6.83 0,3.77 -3.06,6.83 -6.83,6.83z"/>
   <path class="fil46" d="M6034.75 3687.77c-0.53,0 -1.05,-0.06 -1.54,-0.17 2.06,-3.86 4.18,-7.71 6.33,-11.51 1.25,1.24 2.04,2.97 2.04,4.87 0,3.77 -3.06,6.81 -6.83,6.81z"/>
   <path class="fil47" d="M6033.21 3687.6c-3.03,-0.7 -5.27,-3.4 -5.27,-6.64 0,-3.77 3.04,-6.83 6.81,-6.83 1.86,0 3.55,0.75 4.79,1.96 -2.15,3.8 -4.27,7.65 -6.33,11.51z"/>
   <path class="fil46" d="M6270.03 3799.82c-3.76,0 -6.8,-3.05 -6.8,-6.8 0,-3.78 3.04,-6.84 6.8,-6.84 3.77,0 6.83,3.06 6.83,6.84 0,3.75 -3.06,6.8 -6.83,6.8z"/>
   <path class="fil35" d="M7354.26 3882.67l-7.32 1.46c58.44,29.23 105.21,99.37 127.14,140.3l24.84 1.44c0,0 -62.83,-102.28 -144.66,-143.2z"/>
   <path class="fil49" d="M4587.21 3572.12c-274.42,481.9 13.37,752.97 257.67,856.72l43.52 -103.75c-528.76,-187.41 -301.19,-752.97 -301.19,-752.97z"/>
   <path class="fil49" d="M4814.75 3796.32c53.25,127.31 214.2,23.44 190.76,-86.99 -23.41,-110.44 -230.89,-712.83 -163.97,-896.91 0,0 -379.83,139.75 -26.79,983.9z"/>
   <path class="fil50" d="M4847.51 3753.4c36.49,96.59 137.38,14.47 120.27,-69.68 -17.11,-84.19 -188.62,-633.85 -149.36,-775.85 0,0 -212.93,204.92 29.09,845.53z"/>
   <path class="fil49" d="M5169.51 2678.58c76.98,-20.09 220.88,-10.04 338.01,277.78 117.12,287.79 338,933.68 66.92,913.61 -271.07,-20.08 -404.93,-1191.39 -404.93,-1191.39z"/>
   <path class="fil50" d="M5237.62 2800.22c62.05,-15.53 177.11,-4.37 265.24,241.09 88.12,245.38 252.3,795.41 35.57,773.4 -216.7,-22.04 -300.81,-1014.49 -300.81,-1014.49z"/>
   <path class="fil51" d="M5597.88 4013.87c0,0 9.92,-423.05 -177.48,-637.24 -187.43,-214.19 -346.4,-25.1 -346.4,-25.1 0,0 -175.57,397.95 -215.73,535.16 -40.16,137.22 -97.05,518.72 -76.97,619.13l933.7 0c0,0 83.67,-237.61 -117.12,-491.95z"/>
   <path class="fil52" d="M5597.88 4013.87c0,0 20.07,-455.14 -167.34,-669.32 -187.4,-214.2 -368.12,-30.13 -368.12,-30.13 0,0 -163.99,435.06 -204.15,572.27 -40.16,137.22 -97.05,518.72 -76.97,619.13l330.37 0c-37.03,-477.38 94.17,-1019.8 324.61,-955.18 161.96,45.42 180.14,384.46 115.86,761.6 -11.7,68.52 -27.34,133.43 -46.05,193.58l208.91 0c0,0 83.67,-237.61 -117.12,-491.95z"/>
   <polygon class="fil52" points="5136.89,4505.82 5254.86,4505.82 5235.49,3577.43 5029.68,3733.05 "/>
   <polygon class="fil52" points="5485.64,4505.82 5553.52,4505.82 5555.93,3843.47 5381.44,3699.88 "/>
   <path class="fil51" d="M4925.22 4505.82l-311.24 0c0,0 -91.21,-57.49 -44.36,-127.79 46.83,-70.26 266.68,-37.73 306.1,-2.45 47.69,42.66 49.5,130.24 49.5,130.24z"/>
   <path class="fil51" d="M4851.59 3846.54c-100.41,40.15 -150.59,421.67 -147.26,552.18l46.85 107.1 237.61 0c0,0 -36.82,-699.45 -137.2,-659.28z"/>
   <path class="fil52" d="M4948.1 4329.72c8.73,62.91 11.42,122.9 8.87,176.1l44.24 0c0,0 -50.18,-714.21 -150.58,-674.05 -33.42,13.37 -60.3,79.46 -82.49,146.65 71.41,-8.2 151.8,148.41 179.96,351.3z"/>
   <path class="fil51" d="M5922.37 4339.82c-275.56,-33.34 -356.41,166 -356.41,166l367.03 0c0,0 63.77,-157 -10.62,-166z"/>
   <path class="fil52" d="M5917.59 4415.04c-103.85,4.58 -189.29,-19.78 -190.82,-54.42l0.09 -0.7c-120.52,46.71 -180.14,145.9 -180.14,145.9l386.27 0c0,0 19.94,-49.11 24.5,-93.96 -12.84,1.48 -26.16,2.59 -39.9,3.18z"/>
   <path class="fil51" d="M5507.52 3160.48c-53.57,-291.15 -167.34,-548.84 -485.26,-468.52 -317.93,80.32 -244.29,413.3 -151.43,606.56 41.01,30.96 122.98,62.77 131.36,177.63l478.56 -14.49c-76.98,-153.92 26.77,-301.18 26.77,-301.18z"/>
   <path class="fil52" d="M5507.52 3160.48c-51.99,2.8 -174.38,-139.36 -311.78,-117.68 -94.11,14.85 -277.33,262.28 -324.07,256.38 43.02,28.01 120.59,88.13 127.65,184.8l489.67 -18.67c-65.85,-131.69 -2.05,-270.92 18.53,-304.83z"/>
   <path class="fil49" d="M5287.73 3025.76c0,0 -28.5,61.28 -90.07,82.43 -30.77,10.58 -73.28,3.25 -117.69,-10.99 0,0 64.92,95.91 155.94,66.08 91.03,-29.82 51.82,-137.52 51.82,-137.52z"/>
   <path class="fil53" d="M5135.51 3243.61c22.64,27.99 114.99,89.63 159.34,55.18 44.35,-34.47 94.63,-111.03 61.54,-190.73 -33.1,-79.72 -149.79,35.61 -149.79,35.61l-71.09 99.94z"/>
   <path class="fil54" d="M5297.26 3244.93c-34.47,20.56 -94.81,12.66 -144.01,-1.49l-4.64 7.08c22.64,22.25 111.56,68.27 150.09,35.84 22.97,-19.33 46.78,-51.57 54.82,-88.3 -16.11,18.88 -36.5,35.09 -56.26,46.87z"/>
   <path class="fil55" d="M5094.22 3022.44c-60.25,27.61 -145.7,98.17 -135.65,213.61 0,0 93.6,58.68 161.45,40.17 55.24,-15.06 109.74,-163.43 109.74,-163.43l-135.54 -90.35z"/>
   <path class="fil56" d="M5193.6 3088.7c-18.34,46.64 -68.51,94.4 -136.94,124.05 -32.1,13.92 -64.4,22.2 -94.45,25.17 24.91,12.42 108.5,57.83 168.25,33.93 58.57,-23.42 99.3,-159.06 99.3,-159.06l-36.16 -24.09z"/>
   <path class="fil55" d="M5213.24 2976.99c60.19,-27.65 165.56,-13.13 243.54,77.1 0,0 4.96,159.88 -65.01,152.69 -69.96,-7.21 -179.01,-96.42 -179.01,-96.42l0.48 -133.37z"/>
   <path class="fil56" d="M5322.46 3109.64c-41.59,-6.21 -79.22,-18.32 -109.57,-33.94l-0.13 34.66c0,0 109.06,89.21 179.01,96.42 43.42,4.46 57.98,-55.38 62.78,-101.45 -36.91,9.44 -83.06,11.61 -132.09,4.31z"/>
   <path class="fil53" d="M5283.18 2852.95c-13.04,-27.4 -36.79,-43.34 -52.06,-35.31 -14.59,7.7 -15.38,34.28 -2.75,59.17 12.38,24.25 27.92,29.07 42.78,23.55 15.57,-5.79 24.76,-20.68 12.03,-47.41z"/>
   <path class="fil53" d="M4982.9 2987.64c-14.43,-30.29 -39.56,-47.69 -56.13,-38.96 -16.57,8.8 -18.32,40.46 -3.9,70.74 14.41,30.27 32.57,34.8 49.14,26.05 16.56,-8.77 25.3,-27.54 10.89,-57.83z"/>
   <path class="fil57" d="M5225.91 3110.24c-20.28,9.35 -163.49,-41.79 -156.8,-80.27 6.7,-38.49 142.05,-108.49 180.72,-65.26 28.44,31.79 -2.17,135.49 -23.92,145.53z"/>
   <polygon class="fil55" points="5091.69,4505.82 5209.67,4505.82 5205.54,3791.63 5026.12,3941.39 "/>
   <path class="fil51" d="M5204.82 3861.74l1.13 0.19 2.76 -165.69c-42.14,-99.22 -209.37,-22.84 -191.18,238.84 5.25,75.27 43.52,306.95 43.52,306.95 16.71,-216.05 79.35,-384.03 143.77,-380.29z"/>
   <path class="fil55" d="M5688.24 4505.82l-130.63 0 -179.89 -822.98c77.97,27.26 132.47,50.6 206.77,76.68l103.75 746.3z"/>
   <path class="fil55" d="M5172.02 4505.82l163.14 0c0,0 -30.11,-85.33 -123.67,-88.02 -62.06,-1.78 -39.47,88.02 -39.47,88.02z"/>
   <path class="fil55" d="M5047.03 4505.82l163.14 0c0,0 -15.51,-70.76 -108.6,-72.96 -61.77,-1.48 -54.54,72.96 -54.54,72.96z"/>
   <path class="fil55" d="M5765.67 4505.82l-157 0c0,0 14.92,-70.76 104.51,-72.96 59.45,-1.48 52.49,72.96 52.49,72.96z"/>
   <path class="fil55" d="M5498.17 4505.82l163.14 0c0,0 -15.54,-70.76 -108.62,-72.96 -61.77,-1.48 -54.52,72.96 -54.52,72.96z"/>
   <path class="fil51" d="M5622.27 4031.21l-37.78 -271.69c-52.84,-255.71 -235.22,-220.57 -206.77,-76.68l29.75 136.15c61.29,-6.67 145.05,78.83 214.8,212.22z"/>
   <path class="fil58" d="M5162.32 3027.39c-31.67,11.7 -62.55,17.54 -88.81,18.02 23.97,35.27 134.74,72.97 152.4,64.83 20.39,-9.41 48.56,-101.1 28.59,-138.75 -20.7,21.11 -53.13,41.49 -92.18,55.9z"/>
   <path class="fil59" d="M5184.64 3088.16c6.7,-2.51 -20.84,-41.68 -48.63,-45.64 -27.79,-3.98 -31.84,9.82 -21.8,18.85 9.92,8.92 62.49,29.78 70.43,26.79z"/>
   <path class="fil59" d="M5222.53 3082.61c-6.38,3.67 -17.92,-43.34 -2.42,-67.87 15.51,-24.51 28.76,-18.85 28.97,-5.08 0.19,13.59 -18.98,68.59 -26.55,72.95z"/>
   <path class="fil52" d="M4878.81 2980.24c4.53,49.93 -53.88,51.79 -50.15,-20.1 3.72,-71.92 80.06,-132.67 120.02,-129.46 39.93,3.19 14.89,53.72 -16.82,55.44 -31.7,1.71 -59,28.59 -53.05,94.12z"/>
   <path class="fil52" d="M5178.27 2799.01c-39.01,28.1 -71.38,-30.6 -9.78,-60.6 61.59,-30.04 152.24,19.34 170.66,61.6 18.44,42.26 -36.69,40.42 -54.82,8.89 -18.17,-31.53 -54.86,-46.76 -106.06,-9.89z"/>
   <path class="fil60" d="M5190.24 3252.41c0,0 29.79,122.38 75.38,114.43 57.09,-9.97 64.34,-159.25 64.34,-159.25 0,0 -88.75,-7.32 -139.72,44.82z"/>
   <path class="fil52" d="M4962.17 4382.01c-31.47,82.45 -176.51,124.57 -329.25,94.2 -22.86,-4.54 -44.61,-10.51 -65.02,-17.57 21.16,28.73 57.82,47.18 57.82,47.18l390.56 0c0,0 -2.16,-79.39 -54.11,-123.81z"/>
   <path class="fil61" d="M5091.58 4505.82l38.49 0c0,0 -11.71,-33.48 -22.58,-35.15 -10.89,-1.67 -15.91,35.15 -15.91,35.15z"/>
   <path class="fil61" d="M5181.11 4505.82l38.49 0c0,0 -11.73,-33.48 -22.59,-35.15 -10.89,-1.67 -15.9,35.15 -15.9,35.15z"/>
   <path class="fil61" d="M5265.62 4505.82l38.48 0c0,0 -23.64,-31.09 -35.12,-32.65 -11.47,-1.53 -3.36,32.65 -3.36,32.65z"/>
   <path class="fil61" d="M5541.7 4505.82l36.37 0c0,0 -11.07,-33.48 -21.35,-35.15 -10.27,-1.67 -15.02,35.15 -15.02,35.15z"/>
   <path class="fil61" d="M5626.29 4505.82l36.37 0c0,0 -11.07,-33.48 -21.34,-35.15 -10.3,-1.67 -15.03,35.15 -15.03,35.15z"/>
   <path class="fil61" d="M5706.13 4505.82l36.36 0c0,0 -22.34,-31.09 -33.17,-32.65 -10.84,-1.53 -3.19,32.65 -3.19,32.65z"/>
   <path class="fil62" d="M5184.52 2998.53c-6.84,0 -11.76,-1.78 -13.11,-5.32 -2.64,-6.9 9.39,-17.94 26.89,-24.61 8.54,-3.26 16.8,-4.87 23.33,-4.87 6.84,0 11.78,1.78 13.13,5.32 2.63,6.9 -9.4,17.93 -26.9,24.6 -8.54,3.26 -16.82,4.88 -23.34,4.88z"/>
   <path class="fil62" d="M5130.43 3022.62c-1.8,0 -3.29,-0.56 -4.15,-1.73 -2.15,-2.88 0.29,-8.35 5.47,-12.19 3.06,-2.3 6.39,-3.5 9.04,-3.5 1.8,0 3.28,0.56 4.14,1.72 2.15,2.87 -0.31,8.34 -5.45,12.2 -3.07,2.28 -6.41,3.5 -9.05,3.5z"/>
   <path class="fil63" d="M3268.69 3584.09c87.61,4.61 157.48,-8.45 131,-83.96 -38.86,-110.74 -142.49,47.61 -142.49,47.61l11.49 36.35z"/>
   <path class="fil9" d="M3287.22 2787.69c59.1,66.91 -13.4,133.84 -55.78,158.37l-101.48 -99.26c6.71,-11.14 98.15,-126.03 157.26,-59.11z"/>
   <path class="fil64" d="M3269.59 2805.69c42.69,48.31 -9.66,96.66 -40.26,114.37 -19.16,-35.58 -36.89,-58.45 -73.32,-71.68 4.83,-8.06 70.89,-91.03 113.58,-42.69z"/>
   <path class="fil9" d="M2939.53 2781.62c-61.26,54.95 -2.1,129.38 34.62,159.97l112.51 -76.7c-5.23,-12.24 -81.91,-141.79 -147.13,-83.27z"/>
   <path class="fil64" d="M2947.51 2803.96c-45.01,39.66 -1.77,93.86 25,115.98l80.76 -55.81c-3.75,-8.78 -58.66,-101.67 -105.76,-60.17z"/>
   <path class="fil63" d="M2890.78 3569.1l23.57 18.22 -112.91 0c0,0 -26.96,-36.06 89.34,-18.22z"/>
   <path class="fil9" d="M2929.39 3269.12c155.94,48.06 177.93,265.16 169.81,318.2l-231.93 0c-109.13,-187.1 14.33,-332.93 62.12,-318.2z"/>
   <path class="fil63" d="M2874.2 3430.07c0,-48.11 -7.42,-89.73 -18.24,-109.96 23.55,-37.34 54.46,-56.83 73.43,-50.99 155.94,48.06 177.93,265.16 169.81,318.2l-231.93 0c-7.35,-12.59 -13.6,-24.99 -18.93,-37.17 14.78,-12.25 25.86,-61.34 25.86,-120.08z"/>
   <path class="fil63" d="M3252.64 3587.32c37.91,-69.13 147.22,-339.03 -22.3,-557.62 -169.52,-218.58 -356.88,171.75 -356.88,292.21 0,120.43 48.98,265.41 156.14,265.41 118.24,0 223.04,0 223.04,0z"/>
   <path class="fil65" d="M2910.26 3226.36c39.04,-150.56 218.6,-136.07 252.05,-103.73 116.4,112.52 21.19,363.57 -7.92,464.69l-127.01 0c-121.53,-51.66 -156.14,-210.41 -117.12,-360.96z"/>
   <path class="fil66" d="M3157.87 3407.22c-42.95,-110.18 -132.2,-178.29 -199.35,-152.12 -33.99,13.24 -55.76,48.13 -63.45,93.64 -0.54,-39.87 4.58,-81.42 15.19,-122.38 39.04,-150.56 218.6,-136.07 252.05,-103.73 91.09,88.06 52.6,260.92 17.59,380.41 -2.14,-30.51 -9.32,-63.16 -22.03,-95.82z"/>
   <path class="fil9" d="M2917.78 3169.48l33.2 165.92 -9.02 -0.14c0,0 -49.66,-41.39 -63.71,-56.54 -13.9,-15.02 -22.46,-100.3 39.53,-109.24z"/>
   <path class="fil67" d="M2891.88 3411.67c38.87,-72.21 96.07,-105.73 139.85,-86.81 43.79,18.91 47.75,92.8 8.86,165.01 -38.88,72.21 -100.78,102.47 -149.7,96.49 -29.2,-31.91 -37.93,-102.47 0.99,-174.69z"/>
   <path class="fil68" d="M2894.26 3417.5c15.14,-26.97 26.28,-48.34 45.47,-66.06 16.53,-19.95 63.31,-17.19 75.73,-8.72 64.57,43.99 -66.39,205.23 -125.64,242.74 -28.28,-28.67 -37.02,-94.27 4.44,-167.96z"/>
   <path class="fil69" d="M2891.88 3411.67c13.21,-24.56 28.57,-44.65 44.78,-59.71 14.06,-2.58 28.34,-2.14 39.57,5.47 59.51,40.31 -28.59,186.39 -86.11,228.03 -28.58,-32.31 -36.8,-102.23 1.76,-173.79z"/>
   <path class="fil70" d="M3066.97 3429.89c14.18,1.71 42.36,-69.15 -19.35,-109.29 -61.7,-40.14 -118.96,2.97 -101.11,17.1 9.23,7.3 35.18,-6.65 78.8,27.51 44.63,34.94 32.67,63.61 41.66,64.68z"/>
   <path class="fil71" d="M2990.92 3334.56c38.99,4.08 71.05,12.42 73.53,-0.12 38.95,40.67 15.19,96.99 2.52,95.45 -8.99,-1.07 2.97,-29.74 -41.66,-64.68 -43.62,-34.16 -69.57,-20.21 -78.8,-27.51 -2.46,-1.94 -3.44,-4.45 -3.25,-7.19 12.53,1.48 29.22,2.11 47.66,4.05z"/>
   <path class="fil70" d="M3037.85 3287.06l12 -12.55c15.48,11.11 20.29,31.7 -2.96,56.75l-3.82 -2.04c0,0 20.74,-30.12 -5.22,-42.16z"/>
   <path class="fil9" d="M3223.03 3152.49l-172.08 169.52 8.85 6.53c0,0 107.93,-25.34 176.19,-12.56l51.37 -72.78c0,0 -22.81,-111.68 -64.33,-90.71z"/>
   <path class="fil63" d="M3260.48 3245.82c-11.42,-29.97 -60.61,-36.03 -115.96,-15.99l78.51 -77.34c49.76,-42.57 75.7,86.05 75.7,86.05l-62.74 77.44 -0.74 -0.12c22.35,-24.4 32.73,-50.34 25.23,-70.04z"/>
   <path class="fil72" d="M3296.51 3266.15c130.96,48.48 41.64,267.63 5.96,321.17l-233.47 0c-11.9,-188.84 187.37,-336.05 227.51,-321.17z"/>
   <path class="fil9" d="M3251.98 3520.48c56.69,-95.76 69.99,-192.71 29.72,-216.56 -40.29,-23.86 -118.9,34.43 -175.59,130.18 -4.95,8.35 -9.54,16.72 -13.83,25.05 52.04,-122.47 173.8,-204.28 204.23,-193 130.96,48.48 41.64,267.63 5.96,321.17l-98.62 0c16.81,-19.16 33.24,-41.71 48.13,-66.84z"/>
   <path class="fil17" d="M3231.65 3031.4c-0.06,-0.09 -0.11,-0.16 -0.18,-0.24 0.06,0.07 0.12,0.16 0.18,0.24zm-0.38 -0.5c-0.12,-0.17 -0.24,-0.32 -0.37,-0.48 0.12,0.16 0.25,0.32 0.37,0.48zm-0.5 -0.66c-0.15,-0.18 -0.28,-0.35 -0.43,-0.54 0.15,0.18 0.29,0.37 0.43,0.54zm-0.43 -0.54c-28.94,-37.33 -58.42,-56.9 -87.39,-63.09 28.97,6.18 58.44,25.76 87.39,63.09z"/>
   <path class="fil73" d="M2921.79 3189.52l-4.01 -20.04c-0.58,0.08 -1.16,0.18 -1.72,0.28 45.57,-100.93 122.67,-205.35 206.08,-205.35 6.9,0 13.83,0.72 20.81,2.2 28.97,6.19 58.45,25.76 87.39,63.09l0 0c0.15,0.19 0.28,0.36 0.43,0.54 0.04,0.06 0.09,0.12 0.13,0.18 0.13,0.16 0.25,0.31 0.37,0.48 0.06,0.09 0.13,0.17 0.2,0.26 0.07,0.08 0.12,0.15 0.18,0.24 25.28,32.92 44.26,67.01 58.15,101.37 -5,11.82 -11.33,22.27 -18.75,31.43 -7.81,-11.87 -17.25,-20.34 -28.28,-20.34 -6.09,0 -12.68,2.58 -19.74,8.63l0 0 -24 23.64c-8.16,-18.68 -19.2,-35.71 -33.7,-50.5l0 0c-0.33,-0.33 -0.66,-0.66 -0.99,-1 -0.01,0 -0.01,-0.01 -0.02,-0.02 -0.1,-0.1 -0.2,-0.2 -0.3,-0.3 -0.01,-0.01 -0.02,-0.02 -0.04,-0.04 -0.21,-0.21 -0.43,-0.43 -0.64,-0.63 -0.01,-0.01 -0.04,-0.04 -0.04,-0.04 -0.1,-0.09 -0.18,-0.18 -0.28,-0.27 -0.02,-0.03 -0.05,-0.06 -0.08,-0.08 -0.07,-0.08 -0.16,-0.16 -0.24,-0.24 -0.02,-0.02 -0.06,-0.05 -0.08,-0.07 -0.1,-0.1 -0.21,-0.2 -0.31,-0.31l0 0c-12.14,-11.73 -43.52,-21.12 -80.44,-21.12 -55.55,0 -123.63,21.24 -157.63,87.65 -0.82,0.13 -1.64,0.25 -2.45,0.36z"/>
   <path class="fil74" d="M3165.33 3125.63l0 0 0 0zm-0.99 -1c-0.01,0 -0.01,-0.02 -0.02,-0.02 0.01,0.01 0.01,0.02 0.02,0.02zm-0.32 -0.32c-0.02,-0.01 -0.02,-0.02 -0.04,-0.04 0.02,0.02 0.03,0.03 0.04,0.04zm-0.68 -0.67c-0.01,-0.02 -0.03,-0.04 -0.04,-0.04 0,0 0.03,0.03 0.04,0.04zm-0.32 -0.31c-0.02,-0.03 -0.05,-0.06 -0.08,-0.08 0.03,0.02 0.06,0.05 0.08,0.08zm-0.32 -0.32c-0.03,-0.02 -0.05,-0.05 -0.08,-0.07 0.02,0.02 0.06,0.05 0.08,0.07z"/>
   <path class="fil75" d="M3140.42 3218.82c-63.59,0 -124.58,-26.86 -137.59,-65.33 0,0 -42.65,29.9 -78.59,35.67 34,-66.41 102.08,-87.65 157.63,-87.65 36.92,0 68.3,9.39 80.44,21.12l0 0c0.1,0.11 0.21,0.21 0.31,0.31 0.03,0.02 0.05,0.05 0.08,0.07 0.08,0.08 0.17,0.16 0.24,0.24 0.03,0.02 0.06,0.05 0.08,0.08 0.1,0.09 0.18,0.18 0.28,0.27 0.01,0 0.03,0.02 0.04,0.04 0.21,0.2 0.43,0.42 0.64,0.63 0.02,0.02 0.02,0.03 0.04,0.04 0.1,0.1 0.2,0.2 0.3,0.3 0.01,0 0.01,0.02 0.02,0.02 0.33,0.34 0.66,0.67 0.99,1l0 0c14.5,14.79 25.54,31.82 33.7,50.5l-42.76 42.13c-5.28,0.37 -10.58,0.56 -15.85,0.56z"/>
   <path class="fil76" d="M2913.02 3190.12c-9.13,0 -17.38,-2.16 -23.81,-7.53 6.82,-6.04 15.59,-10.54 26.73,-12.58 0.04,-0.09 0.08,-0.17 0.12,-0.25 0.56,-0.1 1.14,-0.2 1.72,-0.28l4.01 20.04c-2.98,0.38 -5.92,0.6 -8.77,0.6z"/>
   <path class="fil73" d="M3156.27 3218.26l42.76 -42.13 24 -23.64 0 0c7.06,-6.05 13.65,-8.63 19.74,-8.63 11.03,0 20.47,8.47 28.28,20.34 -27.93,34.55 -71.08,50.93 -114.78,54.06z"/>
   <path class="fil72" d="M3005.06 3137.51c31.23,23.79 127.89,130.86 229,8.92 101.11,-121.94 -56.51,-310.77 -114.49,-301.85 -58.01,8.91 -178.45,57.98 -224.53,196.26 -15.11,45.29 -16.9,109.28 0,123.44 32.83,27.55 110.02,-26.77 110.02,-26.77z"/>
   <path class="fil9" d="M2984.99 3137.51c2.52,1.94 5.47,4.4 8.83,7.24 -18.73,11.4 -56.9,31.72 -83.76,26.44 34.72,-5.39 74.93,-33.68 74.93,-33.68z"/>
   <path class="fil9" d="M3213.99 3146.43c93.85,-113.18 -35.22,-284 -100.6,-300.79 2.12,-0.41 4.18,-0.76 6.18,-1.06 57.98,-8.92 215.6,179.91 114.49,301.85 -39.12,47.19 -77.57,60.07 -111.82,56.77 28.9,-2.88 60.11,-18.61 91.75,-56.77z"/>
   <path class="fil9" d="M2991.68 3089.18c24.17,15.84 79.3,28.26 109.29,28.26 89.14,0 137.08,-64.14 139.31,-163.92 31.18,60.16 42.41,134.27 -6.22,192.91 -101.11,121.94 -197.77,14.87 -229,-8.92 0,0 -77.19,54.32 -110.02,26.77 -6.99,-5.86 -24.55,-44.6 -9,-85.52 30.26,28.91 48.39,21.56 105.64,10.42z"/>
   <path class="fil9" d="M3163.8 3587.32l-146.73 0c-25.64,-38.1 84.27,-53.64 146.73,0z"/>
   <path class="fil72" d="M3127.3 3587.32l-110.37 0c-19.28,-28.66 63.4,-40.35 110.37,0z"/>
   <path class="fil65" d="M2961.45 3102.29c-36.54,14.36 -68.39,4.48 -66.27,-24.54 2.15,-29.66 39.29,-85.65 76.58,-93.81 32.63,-7.14 52.94,31.08 50.11,54.76 -2.74,23.25 -28.28,50.97 -60.42,63.59z"/>
   <path class="fil77" d="M2944.84 3064.28c30.95,-22.63 48.11,-53.4 34.56,-71.91 -2.46,-3.39 -5.67,-6.01 -9.48,-7.95l1.84 -0.48c32.63,-7.14 52.94,31.08 50.11,54.76 -2.74,23.25 -28.28,50.97 -60.42,63.59 -32.65,12.84 -61.5,6.25 -65.76,-16.02 15.73,-0.05 31.73,-9.25 49.15,-21.99z"/>
   <path class="fil65" d="M3026.12 3107.27c-24.03,-11.93 -46.46,-21.07 -54.52,-37.42 -9.09,-18.4 -1.34,-44.11 16.28,-57.9 34.03,-26.62 103.79,-18.99 148.95,13.18 39.51,28.16 44.89,65.05 16.68,85.11 -27.72,19.74 -82.45,19.3 -127.39,-2.97z"/>
   <path class="fil77" d="M2987.88 3011.95c93.76,-73.36 34.47,7.15 35.02,28.36 0.98,36.94 40.79,79.37 92.93,79.37 8.47,0 16.63,-0.88 24.44,-2.36 -29.73,12.05 -75.53,9.1 -114.15,-10.05 -24.03,-11.93 -46.46,-21.07 -54.52,-37.42 -9.09,-18.4 -1.34,-44.11 16.28,-57.9z"/>
   <path class="fil78" d="M2984.14 3039.01l2.1 2.08c0,0 0.13,23.1 11.41,52.08l-8.81 -1.8c0,0 -7.95,-36.35 -4.7,-52.36z"/>
   <path class="fil78" d="M3030.33 3109.25c0,0 -49.88,-24.44 -64.8,-6.64 0,0 2.68,-16 21.06,-16.8 17.71,-0.75 43.74,23.44 43.74,23.44z"/>
   <path class="fil65" d="M2976.81 2920.41c29.2,-24.57 105.87,-58.35 121.56,-45.86 16.08,12.81 -48.98,79.29 -80.44,104.06 -30.29,23.88 -64.61,31.81 -77.37,18.77 -12.46,-12.76 8.05,-53.27 36.25,-76.97z"/>
   <path class="fil65" d="M3035.17 2979.52c-8.96,-39.91 26.74,-102.92 60.11,-106.6 33.37,-3.66 67.69,25.71 76.65,65.61 8.94,39.9 -10.82,75.23 -44.19,78.9 -33.37,3.68 -83.61,1.99 -92.57,-37.91z"/>
   <path class="fil79" d="M3101.11 2970.65c0.81,-4.6 4.53,-7.93 8.26,-7.47 3.76,0.47 6.11,4.57 5.28,9.14 -0.82,4.58 -4.53,7.93 -8.28,7.48 -3.75,-0.47 -6.11,-4.55 -5.26,-9.15z"/>
   <path class="fil65" d="M3084.4 2900.75c-14.32,90.72 -37.91,102.21 -52.57,113.7l-76.96 -8.17c0,0 143.86,-196.23 129.53,-105.53z"/>
   <path class="fil77" d="M3067.51 2953.13c6.54,6.64 -28.8,52.51 -34.21,60.94l-36.86 -12.05c37.32,-6.04 71.07,-48.89 71.07,-48.89z"/>
   <path class="fil78" d="M3035.26 3005.65c5.37,11.85 -30.33,43.74 -49.02,43.74 -7.44,0 -39.91,-34.8 -36.57,-43.71 3.35,-8.93 80.02,-12.3 85.59,-0.03z"/>
   <path class="fil9" d="M2944.48 3337.34c0,0 -8.74,-3.93 -6.12,-14.17 0.82,-3.22 9.57,-15.33 12.84,-16.02 5.36,-1.11 7.95,1.49 7.95,1.49l-14.67 28.7z"/>
   <path class="fil9" d="M3031.65 3310.86c0,0 4.71,-8.67 14.9,-4.87 3.17,1.21 14.58,11.46 14.95,14.89 0.63,5.6 -2.21,7.95 -2.21,7.95l-27.64 -17.97z"/>
   <path class="fil9" d="M3041.87 3313.44c-5.48,2.18 -19.44,10.92 -22.24,8.4 -5.55,-4.95 10.89,-13.64 16.43,-14.66 5.54,-1.04 5.81,6.26 5.81,6.26z"/>
   <path class="fil9" d="M2951.25 3307.17c5.6,-0.82 20.47,-6 22.75,-2.92 4.56,6.04 -12.7,10.56 -18.19,10.26 -5.47,-0.3 -4.56,-7.34 -4.56,-7.34z"/>
   <path class="fil9" d="M2949.63 3317.65c5.39,2.01 21.12,4.82 21.71,8.52 1.21,7.38 -16.32,2.91 -21.08,-0.01 -4.75,-2.91 -0.63,-8.51 -0.63,-8.51z"/>
   <path class="fil9" d="M3050.7 3317.72c-4.64,3.66 -15.6,15.97 -19.01,14.42 -6.77,-3.09 6.56,-16.07 11.63,-18.66 5.03,-2.58 7.38,4.24 7.38,4.24z"/>
   <path class="fil9" d="M2944.03 3327.48c4.6,3.54 18.99,10.9 18.43,14.57 -1.06,7.28 -16.61,-2.21 -20.37,-6.38 -3.73,-4.18 1.94,-8.19 1.94,-8.19z"/>
   <path class="fil9" d="M3062.85 3325.8c-4.65,3.66 -15.54,15.95 -18.94,14.4 -6.74,-3.06 6.54,-16.03 11.56,-18.63 5.03,-2.58 7.38,4.23 7.38,4.23z"/>
   <path class="fil80" d="M2895.71 3417.02c2.41,-4.47 4.9,-8.71 7.44,-12.85 15.38,23.22 23.15,57.56 19.02,94.56 -3.45,30.82 -14.5,57.76 -29.7,76.72 -25.03,-30.62 -31.58,-93.79 3.24,-158.43z"/>
   <path class="fil77" d="M2964.4 3105.65c-1.38,-8.5 16.42,-12.32 36.9,-8.68 17.83,3.19 30.33,10.9 30,17.32 -0.32,6.14 -12.45,9.98 -28.83,8.61 -18.63,-1.55 -36.74,-9.21 -38.07,-17.25z"/>
   <path class="fil78" d="M3027.64 3110.14c0,-2.23 1.31,-4.04 2.93,-4.04 1.62,0 2.92,1.81 2.92,4.04 0,2.24 -1.3,4.05 -2.92,4.05 -1.62,0 -2.93,-1.81 -2.93,-4.05z"/>
   <path class="fil78" d="M2962.97 3101.36c0,-2.24 1.29,-4.04 2.92,-4.04 1.61,0 2.93,1.8 2.93,4.04 0,2.23 -1.32,4.04 -2.93,4.04 -1.63,0 -2.92,-1.81 -2.92,-4.04z"/>
   <path class="fil81" d="M3033.49 3003.59c-12.4,6.95 -35.05,11.62 -61.05,11.62 -7.19,0 -14.1,-0.37 -20.65,-1.03 -1.88,-3.59 -2.82,-6.62 -2.12,-8.5 3.15,-8.38 71.02,-11.87 83.82,-2.09z"/>
   <path class="fil82" d="M2993.35 3040.31c10.04,-1.69 40.04,-27.23 22.82,-25.53 -34.03,3.35 -22.82,25.53 -22.82,25.53z"/>
   <path class="fil82" d="M2977.9 3038.75c-6.43,-1.76 -26.11,-23.94 -16.16,-21.12 16.55,4.66 16.16,21.12 16.16,21.12z"/>
   <path class="fil80" d="M2912.03 3401.94c-0.1,-7.25 3.25,-16.18 8.8,-20 7.7,-5.3 14.62,1.7 12.61,15.15 -1.69,11.21 -8.69,18.05 -14.2,17.22 -4.22,-0.64 -7.1,-5.88 -7.21,-12.37z"/>
   <path class="fil79" d="M2987.97 2967.72c0.71,-4.02 4.76,-7.34 8.67,-6.82 3.58,0.49 4.94,4.09 3.44,7.55 -1.32,3.05 -4.51,5.24 -7.43,5.23 -3.08,-0.03 -5.31,-2.51 -4.68,-5.96z"/>
   <polygon class="fil83" points="4336.18,3193.3 4293.81,3222.32 4352.23,3225.25 "/>
   <polygon class="fil83" points="4397.99,3197.65 4352.79,3222.06 4410.57,3231.17 "/>
   <polygon class="fil83" points="4233.07,3187.09 4221.02,3221.76 4278.29,3220.25 "/>
   <path class="fil84" d="M3921.82 3688.92c0,0 91.06,11.38 155.24,76.55l-30.58 -117.65 -124.66 41.1z"/>
   <path class="fil84" d="M4508.42 3706.13c0,0 83.08,-38.95 172.14,-18.09l-88.62 -83.19 -83.52 101.28z"/>
   <path class="fil84" d="M4469.65 3729.58c0,0 58.78,-25.63 119.05,9.04l-57.25 -96.44 -61.8 87.4z"/>
   <path class="fil84" d="M4590.47 4505.82l-231.94 0c0,0 63.58,-639.47 120.51,-553.69 134.84,203.16 111.43,553.69 111.43,553.69z"/>
   <path class="fil85" d="M4630.1 4437.56c-33.18,-7.3 -53.98,19.2 -61.96,42.42l7.71 25.84 63.45 0c24.55,-21.88 24.01,-60.98 -9.2,-68.26z"/>
   <path class="fil85" d="M3922.22 4419.16c-144.65,49.72 -255.41,-33.9 -250.89,-137.88 4.52,-103.98 61.02,-413.65 -79.11,-418.17 -140.15,-4.52 -146.93,368.43 -33.91,531.18 113.02,162.76 334.54,79.1 382.01,54.26l-18.1 -29.39z"/>
   <path class="fil84" d="M3922.22 4419.16c-144.65,49.72 -255.41,-33.9 -250.89,-137.88 2.74,-62.75 24.33,-200.32 10.28,-300.62 -3.46,41.43 -8.91,85.39 -16.56,130.84 -21,124.87 -53.76,234.28 -88.42,305.82 117.07,131.11 318.65,54.82 363.69,31.23l-18.1 -29.39z"/>
   <path class="fil85" d="M3908.67 4505.82l660.04 0c0,0 -177.82,-663.05 -51.26,-837.87l-458.08 -21.07c0,0 -322.5,406.86 -150.7,858.94z"/>
   <path class="fil84" d="M4475.03 4016.17c4.24,161.47 43.67,489.65 43.67,489.65l-63.94 0c0,0 -120.89,-334.53 -89.7,-485.84 10.82,-52.52 106.04,-153.81 109.97,-3.81z"/>
   <path class="fil84" d="M4472.03 3894.31c-0.76,-95.98 11.18,-179.05 45.42,-226.36l-458.08 -21.07c0,0 -322.5,406.86 -150.7,858.94l246.94 0c-290.93,-898.29 256.21,-798.41 316.42,-611.51z"/>
   <path class="fil83" d="M4687.75 3065.2c0,0 9.85,142.63 -42.79,270.71l-229.96 -112.49c0,0 239.38,-180.1 272.75,-158.22z"/>
   <path class="fil86" d="M4664.65 3099.79c0,0 6.69,97.09 -29.16,184.27l-156.51 -76.53c0,0 162.93,-122.64 185.67,-107.74z"/>
   <path class="fil83" d="M3907.18 3074.26c0,0 10.54,156.71 85.88,274.25l221.53 -125.07c0,0 -277.27,-176.31 -307.41,-149.18z"/>
   <path class="fil86" d="M3939.26 3110.21c0,0 8.4,124.76 68.38,218.34l176.37 -99.58c0,0 -220.76,-140.37 -244.75,-118.76z"/>
   <path class="fil83" d="M3821.26 3595.62c0,0 293.86,152.21 527.42,129.61 233.59,-22.61 420.44,-153.71 420.44,-153.71l-36.16 -37.66 64.8 -13.58 -30.13 -30.15 52.73 -9.02c0,0 -192.96,-269.5 -412.9,-263.7 -57.26,1.5 -192.87,-9.05 -216.99,2.99 -24.12,12.07 -206.45,64.8 -269.74,126.6l61.79 27.11c0,0 -119.06,21.1 -155.23,34.68 0,0 73.85,39.17 128.1,55.74l-128.1 66.31 49.74 30.14 -55.77 34.64z"/>
   <path class="fil87" d="M4767.99 3490.52c-100.95,70.09 -251.87,-40.73 -412.25,-40.73 -172,0 -319.08,104.27 -420.43,25.14l-108.02 55.91 49.74 30.14 -55.77 34.64c0,0 293.86,152.21 527.42,129.61 233.59,-22.61 420.44,-153.71 420.44,-153.71l-36.16 -37.66 64.8 -13.58 -29.77 -29.76z"/>
   <path class="fil53" d="M4246.39 3339.92c-0.95,-22.41 -15.35,-40.56 -32.15,-40.56 -16.8,0 -29.65,18.15 -28.7,40.56 0.99,22.39 15.37,40.57 32.2,40.57 16.79,0 29.64,-18.18 28.65,-40.57z"/>
   <path class="fil53" d="M4484.79 3329.42c-6.41,-22.84 -25.34,-41.36 -42.25,-41.36 -16.91,0 -25.42,18.52 -18.98,41.36 6.44,22.84 25.36,41.38 42.26,41.38 16.92,0 25.41,-18.54 18.97,-41.38z"/>
   <path class="fil84" d="M4339.66 3553.82l-13.55 15.08c0,0 43.7,54.26 100.96,-22.59 0,0 -55.75,40.68 -87.41,7.51z"/>
   <path class="fil86" d="M4155.81 3506.72c28.54,35.5 111.19,73.48 165.75,24.12 63.3,-57.28 33.15,-103.98 33.15,-103.98l-46.69 -40.68c0,0 -251.69,-3.01 -152.21,120.54z"/>
   <path class="fil86" d="M4579.86 3491.01c-17.56,31.84 -92.71,63.75 -165.6,16.5 -78.85,-51.1 -63.24,-89.45 -63.24,-89.45l32.83 -32.92c0,0 255.89,-2.6 196.01,105.87z"/>
   <path class="fil88" d="M4362.9 3442.78c0,0 -74.09,-53.71 -57.96,-65.9 15.26,-11.48 91.27,-1.65 95.35,10.08 4.28,12.29 -37.39,55.82 -37.39,55.82z"/>
   <path class="fil83" d="M4129.59 3967.04c34.52,177.67 70.13,538.78 70.13,538.78l71.74 0c0,0 54.24,-368.1 -17.57,-534.59 -24.92,-57.8 -156.39,-169.21 -124.3,-4.19z"/>
   <path class="fil83" d="M4480.13 3951.94c17.96,182.63 85.31,553.88 85.31,553.88l-63.97 0c0,0 -149.34,-378.43 -131.02,-549.57 6.38,-59.41 92.98,-173.98 109.68,-4.31z"/>
   <path class="fil85" d="M3861.2 4505.82l318.66 0c0,0 -279.81,-652.66 -332.23,-565.1 -124.09,207.3 13.57,565.1 13.57,565.1z"/>
   <path class="fil84" d="M3814.04 4074.97c76.29,-20.82 171.51,109.59 256.33,291.27 22.71,48.6 39.75,95.89 51.19,139.58l58.3 0c0,0 -259.89,-693.95 -332.23,-565.1 -23.41,41.73 -37.01,89.1 -43.78,138.23 3.24,-1.61 6.6,-3.02 10.19,-3.98z"/>
   <path class="fil84" d="M3858.73 4498.86c1.57,4.53 2.47,6.96 2.47,6.96l1.36 0c-1.27,-2.29 -2.55,-4.65 -3.83,-6.96z"/>
   <path class="fil83" d="M4596.4 4424.23c-40.95,-8.72 -66.11,22.97 -75.53,50.68l9.89 30.91 78.05 0c29.81,-26.16 28.57,-72.88 -12.41,-81.59z"/>
   <path class="fil83" d="M4324.83 4427.9c-44.29,-8.33 -62.69,21.92 -65.84,48.42l17.54 29.5 80.46 0c24.55,-24.98 12.15,-69.61 -32.16,-77.92z"/>
   <path class="fil83" d="M4196.45 4420.58c36,-6.53 56.93,18.08 66.75,45.47l-10.88 39.74 -95.03 -0.02c-20.33,-33.91 1.12,-78.25 39.16,-85.19z"/>
   <path class="fil83" d="M3857.73 4431.31c74.09,-5.72 168,74.48 168,74.48l-205.19 -0.02c-62.74,-29.64 -41.1,-68.42 37.19,-74.46z"/>
   <path class="fil83" d="M4273.19 4422.23c-42.73,-7.72 -96.66,19.28 -62.53,83.59l90.92 0c30.27,-26.8 20.82,-74.64 -28.39,-83.59z"/>
   <path class="fil87" d="M4294.43 4472.49c-1.3,12.91 -18.34,23.12 -39.21,23.12 -15.83,0 -29.41,-5.85 -35.66,-14.31 -1.32,6.63 0.48,14.78 6.88,24.52l61.45 0c12.97,-9.29 15.12,-23.16 6.54,-33.33z"/>
   <path class="fil87" d="M4361.91 4472.49c-1.52,12.91 -21.51,23.12 -46,23.12 -18.57,0 -41.29,0.47 -33.79,10.21l76.78 0c15.21,-9.29 13.07,-23.16 3.01,-33.33z"/>
   <path class="fil53" d="M4358.9 3396.57c-21.42,0 -40.81,-3.71 -54.87,-9.73 8.91,19.68 58.87,55.94 58.87,55.94 0,0 33.84,-35.39 37.31,-51.35 -11.97,3.23 -26.1,5.14 -41.31,5.14z"/>
   <path class="fil86" d="M3898.83 3535.93l-1.53 -2.64c1.42,-0.84 145.31,-83.43 302.85,-82.47l-0.08 9.04c-1.16,0 -2.34,-0.01 -3.51,-0.01 -153.91,0 -296.32,75.26 -297.73,76.08z"/>
   <path class="fil86" d="M4002.21 3613.29l-3.17 -2.6c3.85,-4.68 95.54,-114.46 200.11,-143.32l2.39 8.71c-101.79,28.08 -198.41,136.08 -199.33,137.21z"/>
   <path class="fil86" d="M4074.26 3643.15l-3.67 -1.25c0.3,-0.85 29.82,-84.54 133.56,-138.97l4.2 7.99c-100.58,52.79 -133.82,131.41 -134.09,132.23z"/>
   <path class="fil87" d="M4261.23 3441.76c0,-4.18 -2.14,-7.54 -4.79,-7.54 -2.66,0 -4.81,3.36 -4.81,7.54 0,4.17 2.15,7.53 4.81,7.53 2.65,0 4.79,-3.36 4.79,-7.53z"/>
   <path class="fil87" d="M4203.21 3467.38c0,-4.17 -2.14,-7.53 -4.79,-7.53 -2.65,0 -4.8,3.36 -4.8,7.53 0,4.15 2.15,7.53 4.8,7.53 2.65,0 4.79,-3.38 4.79,-7.53z"/>
   <path class="fil87" d="M4261.99 3500.54c0,-4.16 -2.15,-7.53 -4.81,-7.53 -2.64,0 -4.79,3.37 -4.79,7.53 0,4.17 2.15,7.53 4.79,7.53 2.66,0 4.81,-3.36 4.81,-7.53z"/>
   <path class="fil87" d="M4323.77 3467.38c0,-4.16 -2.14,-7.53 -4.8,-7.53 -2.65,0 -4.8,3.37 -4.8,7.53 0,4.16 2.15,7.54 4.8,7.54 2.66,0 4.8,-3.38 4.8,-7.54z"/>
   <path class="fil87" d="M4453.37 3434.24c0,-4.18 -2.15,-7.55 -4.81,-7.55 -2.65,0 -4.78,3.37 -4.78,7.55 0,4.16 2.13,7.52 4.78,7.52 2.66,0 4.81,-3.36 4.81,-7.52z"/>
   <path class="fil87" d="M4475.98 3486.97c0,-4.16 -2.16,-7.53 -4.81,-7.53 -2.66,0 -4.81,3.37 -4.81,7.53 0,4.16 2.15,7.55 4.81,7.55 2.65,0 4.81,-3.39 4.81,-7.55z"/>
   <path class="fil86" d="M4826.92 3520.5l1.55 -2.63c-1.44,-0.85 -145.34,-83.45 -302.84,-82.48l0.06 9.06c1.18,-0.01 2.35,-0.02 3.53,-0.02 153.9,0 296.3,75.26 297.7,76.07z"/>
   <path class="fil86" d="M4723.57 3597.86l3.18 -2.6c-3.85,-4.67 -95.55,-114.45 -200.13,-143.31l-2.41 8.71c101.8,28.09 198.44,136.07 199.36,137.2z"/>
   <path class="fil86" d="M4651.5 3627.72l3.67 -1.24c-0.27,-0.85 -29.82,-84.54 -133.55,-138.98l-4.2 8c100.59,52.79 133.8,131.41 134.08,132.22z"/>
   <path class="fil87" d="M4532.47 3489.99c0,-4.16 -2.14,-7.53 -4.78,-7.53 -2.66,0 -4.81,3.37 -4.81,7.53 0,4.16 2.15,7.53 4.81,7.53 2.64,0 4.78,-3.37 4.78,-7.53z"/>
   <path class="fil87" d="M4533.23 3434.24c0,-4.18 -2.16,-7.55 -4.8,-7.55 -2.64,0 -4.79,3.37 -4.79,7.55 0,4.16 2.15,7.52 4.79,7.52 2.64,0 4.8,-3.36 4.8,-7.52z"/>
   <path class="fil85" d="M4206.39 3265.11c-25.59,5.99 -56.12,19.52 -77.6,55.68 0,0 -16.95,-39.55 16.95,-58.77 33.91,-19.2 60.65,3.09 60.65,3.09z"/>
   <path class="fil85" d="M4465.05 3257.51c24.13,7.75 52.4,23.38 70.4,60.94 0,0 19.08,-38.28 -12.04,-59.81 -31.11,-21.49 -58.36,-1.13 -58.36,-1.13z"/>
   <path class="fil87" d="M4374.68 3380.83c-7.39,-0.41 -13.52,1.46 -13.67,4.21 -0.17,2.72 5.72,5.27 13.11,5.66 7.37,0.42 13.49,-1.44 13.66,-4.17 0.17,-2.73 -5.71,-5.27 -13.1,-5.7z"/>
   <path class="fil89" d="M4348.15 3415.44c-8.72,-10.36 -24.88,-20.89 -21.45,-10.37 2.29,7.41 12.74,16.32 18.83,19.46 3.59,1.84 6.18,2.02 6.94,0.85 0.87,-1.33 -0.29,-5.1 -4.32,-9.94z"/>
   <path class="fil89" d="M4376.46 3421.05c10.37,-8.73 20.9,-24.9 10.37,-21.46 -7.4,2.31 -16.31,12.75 -19.42,18.85 -1.84,3.6 -2.03,6.17 -0.86,6.94 1.35,0.88 5.08,-0.3 9.91,-4.33z"/>
   <path class="fil90" d="M4174.68 4505.56l28.96 0c0,0 -8.81,-30.14 -16.98,-31.63 -8.19,-1.5 -11.98,31.63 -11.98,31.63z"/>
   <path class="fil90" d="M4242.05 4505.56l28.96 0.02c0,0 -8.81,-30.16 -17,-31.65 -8.18,-1.5 -11.96,31.63 -11.96,31.63z"/>
   <path class="fil90" d="M4305.65 4505.58l28.96 0c0,0 -17.8,-28.01 -26.43,-29.41 -8.64,-1.39 -2.53,29.41 -2.53,29.41z"/>
   <path class="fil90" d="M4638.6 4505.58l-22.76 0c0,0 12.46,-30.08 19.2,-31.58 6.7,-1.5 3.56,31.58 3.56,31.58z"/>
   <path class="fil90" d="M4586.16 4505.58l-28.6 0c0,0 17.58,-28.01 26.13,-29.41 8.5,-1.39 2.47,29.41 2.47,29.41z"/>
   <path class="fil91" d="M2557.64 4139.06l31.32 91.55c-224.71,-139.06 -484.45,30.83 -496.19,-158.21 42.29,-14.93 464.87,66.66 464.87,66.66z"/>
   <path class="fil92" d="M3969.23 4285.75c-46.99,15.13 -374.67,-71.49 -374.67,-71.49l150.04 -84.64c0,0 37.94,58.44 107.3,93.32 63.85,32.1 144.86,53.92 117.33,62.81z"/>
   <path class="fil93" d="M3798.28 4263.16c-2.14,-2.7 -3.31,-5.49 -3.31,-8.35 0,-12.67 22.16,-24.03 57.08,-31.79 63.83,32.04 144.69,53.85 117.18,62.73 -20.49,6.58 -94.23,-6.14 -170.95,-22.59z"/>
   <path class="fil94" d="M3396.11 4505.82l-182.03 0c0,0 18.11,-301.59 121.44,-349.93 103.34,-48.34 72.88,19.7 62.23,39.14 -30.32,55.23 -40.97,177.24 -1.64,310.79z"/>
   <path class="fil94" d="M2654.29 4505.82l-182.03 0c0,0 92.1,-293.42 207.3,-340.45 115.2,-47.03 68.04,19.17 52.61,38.08 -43.85,53.76 -84.44,172.46 -77.88,302.37z"/>
   <path class="fil94" d="M3807.69 4173.48c-122.65,47.76 -588.8,157.62 -630.56,173.53 0,0 -353.99,42.72 -607.13,-127.1l-88.73 -172.47 1326.42 126.04z"/>
   <path class="fil95" d="M2527.82 4051.88l64.57 135c237.27,169.57 569.18,153.78 617.23,150.5 -16.13,4.4 -27.43,7.71 -32.49,9.63 0,0 -344.5,64.68 -634.68,-140.14l-79.54 -61.88 64.91 -93.11z"/>
   <path class="fil92" d="M2973.86 4505.82l-182.03 0c0,0 45.02,-260.7 152.67,-302.48 107.65,-41.79 71.11,17.02 58.72,33.82 -35.23,47.77 -56.77,153.24 -29.36,268.66z"/>
   <path class="fil93" d="M2791.83 4505.82c0,0 19.02,-110 61.85,-198.56 8.13,-3.03 16.58,-4.69 25.29,-4.69 33.48,0 63.51,23.8 84.07,61.45 -3.79,42.71 -1.17,91.29 10.82,141.8l-182.03 0z"/>
   <path class="fil92" d="M3540.71 4505.82l185.17 0c0,0 -45.8,-260.7 -155.31,-302.48 -109.51,-41.79 -72.32,17.02 -59.73,33.82 35.84,47.77 57.73,153.24 29.87,268.66z"/>
   <path class="fil93" d="M3635.79 4284.01c5.57,0 11,0.94 16.31,2.69 51.22,91 73.78,219.12 73.78,219.12l-185.17 0c11.34,-46.97 14.34,-92.2 11.6,-132.65 18.41,-53.88 48.93,-89.16 83.48,-89.16z"/>
   <path class="fil96" d="M2687.44 4202.66c0,0 -36.97,10.42 -49.56,13.88 0,0 -221.18,-131.2 -538.89,-117.45 -13.35,0.58 -23.57,-12.43 -23.48,-26.01 0.26,-37.85 -10.47,-80.94 12.03,-106.15 57.43,-64.33 209.02,-75.36 276.28,-5.72 21.94,22.71 23.95,32.22 63.94,49.09 157.05,-54.03 259.68,192.36 259.68,192.36z"/>
   <path class="fil92" d="M2390.12 3987.48c10.03,8.08 22.72,16.54 37.64,22.82 157.05,-54.03 259.68,192.36 259.68,192.36 0,0 -36.97,10.42 -49.56,13.88 0,0 -155.43,-92.13 -392.79,-113.85 69.97,-26.53 123.13,-69.69 145.03,-115.21z"/>
   <path class="fil94" d="M2431.53 4047.8c-10.97,-21.39 -23.82,-40.71 -37.88,-57.64 9.45,7.23 20.84,14.54 34.11,20.14 157.05,-54.03 284.18,208.7 284.18,208.7 0,0 -61.47,-5.92 -74.06,-2.46 0,0 -64.97,-38.46 -174.97,-71.55 -4.4,-31.54 -14.79,-64.79 -31.38,-97.19z"/>
   <path class="fil97" d="M3866.32 4178.47c-15.09,51.93 -917.91,105.12 -1111.03,54.72 -203.04,-53.02 -347.11,-246.76 -347.11,-246.76 0,0 15.66,-51.75 66.57,-11.94 0,0 324.09,-475.21 461.92,-513.42 43.06,-11.95 477.58,11.92 583.28,214.92 105.69,202.97 250.54,449.72 250.54,449.72 0,0 118.93,-26.88 95.83,52.76z"/>
   <path class="fil98" d="M2427.97 3962.11c41.39,49.43 167.48,185.52 332.54,228.61 185.18,48.34 1022.73,1.42 1104.62,-48.3 4.68,8.48 10.16,26.14 5.54,42.08 -15.07,51.92 -926.47,106.13 -1119.6,55.73 -203.03,-53.02 -342.89,-253.8 -342.89,-253.8 0,0 5.33,-17.51 19.79,-24.32z"/>
   <path class="fil99" d="M2942.25 3475.4c43.06,-11.95 471.71,-7.96 577.43,195.02 101.61,195.16 239.66,436.26 250.11,454.11 -249.49,38.32 -859.82,63.91 -1015.22,23.75 -128.57,-33.24 -233.7,-121.76 -294.28,-183.21 4.48,2.29 9.26,5.35 14.46,9.42 0,0 329.65,-460.88 467.5,-499.09z"/>
   <path class="fil100" d="M3241.72 3823.65c-215.29,0 -403.41,-70.72 -505.63,-176.12 77.38,-85.49 154.99,-157.94 206.16,-172.13 43.06,-11.95 471.71,-7.96 577.43,195.02 15.66,30.1 32.19,61.28 49.01,92.57 -93.45,38.31 -205.93,60.66 -326.97,60.66z"/>
   <polygon class="fil97" points="3224.79,3862.88 3399.01,3978.3 3395.09,4173.31 3385.3,4173.31 3385.3,3980.28 3226.05,3874.07 3058.43,3958.39 3099.53,4173.31 3091.7,4177.29 3048.63,3952.41 "/>
   <polygon class="fil97" points="2877.66,3917.18 3052.51,3951.01 3054.47,3962.94 2879.61,3925.13 2781.75,4026.62 2801.32,4181.85 2787.6,4179.86 2770.01,4026.62 "/>
   <polygon class="fil97" points="2953.34,3659.15 3150.39,3664.45 3229.99,3867.44 3218.23,3872.74 3147.77,3675.07 2955.95,3665.77 2851.56,3781.2 2884.18,3923.15 2875.05,3923.15 2843.73,3782.52 "/>
   <polygon class="fil97" points="2685.84,3798.45 2847.65,3778.54 2850.26,3787.83 2688.45,3805.08 2628.43,3935.1 2654.53,4014.71 2775.87,4025.3 2771.95,4037.25 2648,4021.33 2621.89,3936.41 "/>
   <polygon class="fil97" points="2609.24,4088.49 2650.61,4019.67 2646.69,4008.72 2604.61,4086.33 "/>
   <polygon class="fil97" points="2621.25,3939.07 2547.84,3939.07 2475.43,3979.86 2474.75,3974.49 2545.9,3933.1 2625.16,3934.08 "/>
   <polygon class="fil97" points="2543.93,3878.37 2547.84,3939.07 2542.96,3939.07 2538.06,3884.35 "/>
   <polygon class="fil97" points="2685.84,3801.74 2607.56,3795.79 2611.45,3791.31 2688.78,3798.78 "/>
   <polygon class="fil97" points="2685.84,3801.74 2698.56,3685.35 2692.7,3692.32 2680.95,3801.74 "/>
   <polygon class="fil97" points="2775.87,3595.79 2890.38,3571.92 2953.34,3659.15 2950.08,3665.44 2887.44,3577.87 2770.99,3600.77 "/>
   <polygon class="fil97" points="3395.7,3984.18 3510.53,3925.8 3620.13,4002.76 3655.37,4142.06 3667.12,4140.72 3627.96,4005.41 3681.47,3969.59 3676.25,3960.29 3626.66,3996.12 3514.44,3915.2 3389.17,3980.2 "/>
   <polygon class="fil97" points="3147.77,3675.07 3211.71,3574.25 3168.64,3482.71 3159.51,3478.73 3203.89,3574.25 3139.96,3671.09 "/>
   <polygon class="fil97" points="2893.31,3576.9 2978.13,3461.49 2969,3461.49 2886.79,3574.25 "/>
   <polygon class="fil97" points="3518.35,3920.5 3504.01,3778.54 3557.04,3742.59 3554.9,3739.07 3497.96,3777.42 3510.19,3921.72 "/>
   <polygon class="fil97" points="3224.81,3866.76 3374.49,3727.46 3501.39,3782.51 3503.99,3775.9 3371.88,3718.17 3220.84,3859.47 "/>
   <polygon class="fil97" points="3374.81,3723.15 3355.26,3597.79 3396.35,3555 3389.5,3550.01 3349.37,3593.8 3367.97,3728.12 "/>
   <polygon class="fil97" points="3205.86,3574.96 3351.33,3601.77 3352.32,3592.81 3206.49,3569.92 "/>
   <path class="fil101" d="M2272.29 3994.47l-66.8 -3.71c0,0 3.38,40.4 37.99,39.86 13.01,-0.21 28.81,-36.15 28.81,-36.15z"/>
   <path class="fil101" d="M2223.27 4072.65c-3.29,-10.84 -18.94,35.07 -125.28,23.58l-3.92 3.02c0,0 142.9,18.75 129.2,-26.6z"/>
   <path class="fil97" d="M2189.33 3990.14c12.07,10.34 79.6,14.61 95.9,13.95 16.32,-0.69 -2.6,-49.77 -41.1,-51.09 -38.49,-1.33 -67.21,26.54 -54.8,37.14z"/>
   <polygon class="fil100" points="3218.22,3867.44 3052.51,3951.01 2877.66,3917.18 3051.19,3931.12 "/>
   <polygon class="fil100" points="2771.94,4023.98 2654.53,4014.71 2628.43,3935.1 2688.45,3805.08 2641.47,3929.79 2660.72,3998.88 "/>
   <polygon class="fil100" points="2845.03,3778.54 2686.21,3798.46 2698.89,3688.33 2694.97,3787.83 "/>
   <polygon class="fil100" points="3385.3,3980.28 3385.58,4157.97 3101.78,4168.91 3082.21,4085.34 3109.61,4158.96 3373.84,4147.03 "/>
   <polygon class="fil100" points="3620.13,4002.76 3655.7,4139.06 3395.36,4157.97 3398.31,4044.54 3408.1,4148.01 3640.04,4128.12 "/>
   <path class="fil100" d="M3066.66 4046.49l23.37 122.42c0,0 -254.45,4.98 -291.64,-13.93l-16.64 -128.36 23.48 119.41 276 13.92 -14.57 -113.46z"/>
   <path class="fil102" d="M1142.66 4503.13l6706.14 0 0 0.03c-13.07,1.05 -1488.7,119.51 -3471.69,119.51 -1991.84,0 -3234.45,-119.54 -3234.45,-119.54z"/>
  </g>
 </g>
</svg>
